<?xml version="1.0" encoding="UTF-8" standalone="no"?>
<!DOCTYPE svg PUBLIC "-//W3C//DTD SVG 1.1//EN"
 "http://www.w3.org/Graphics/SVG/1.1/DTD/svg11.dtd">
<!-- Generated by graphviz version 2.38.0 (20140413.2041)
 -->
<!-- Title: controllers_diagram Pages: 1 -->
<svg width="435pt" height="534pt"
 viewBox="0.00 0.00 435.25 533.72" xmlns="http://www.w3.org/2000/svg" xmlns:xlink="http://www.w3.org/1999/xlink">
<g id="graph0" class="graph" transform="scale(1 1) rotate(0) translate(169.253 265.963)">
<title>controllers_diagram</title>
<polygon fill="none" stroke="none" points="-169.253,267.753 -169.253,-265.963 266,-265.963 266,267.753 -169.253,267.753"/>
<!-- _diagram_info -->
<g id="node1" class="node"><title>_diagram_info</title>
<text text-anchor="start" x="74" y="35.4" font-family="Times,serif" font-size="13.00">Controllers diagram</text>
<text text-anchor="start" x="74" y="49.4" font-family="Times,serif" font-size="13.00">Date: Mar 31 2017 &#45; 15:32</text>
<text text-anchor="start" x="74" y="63.4" font-family="Times,serif" font-size="13.00">Migration version: 20170331122823</text>
<text text-anchor="start" x="74" y="77.4" font-family="Times,serif" font-size="13.00">Generated by RailRoady 1.5.2</text>
<text text-anchor="start" x="74" y="91.4" font-family="Times,serif" font-size="13.00">http://railroady.prestonlee.com</text>
</g>
<!-- ApplicationController -->
<g id="node2" class="node"><title>ApplicationController</title>
<path fill="none" stroke="black" d="M-153.253,92.2637C-153.253,92.2637 -35.2533,92.2637 -35.2533,92.2637 -29.2533,92.2637 -23.2533,86.2637 -23.2533,80.2637 -23.2533,80.2637 -23.2533,10.2637 -23.2533,10.2637 -23.2533,4.26369 -29.2533,-1.73631 -35.2533,-1.73631 -35.2533,-1.73631 -153.253,-1.73631 -153.253,-1.73631 -159.253,-1.73631 -165.253,4.26369 -165.253,10.2637 -165.253,10.2637 -165.253,80.2637 -165.253,80.2637 -165.253,86.2637 -159.253,92.2637 -153.253,92.2637"/>
<text text-anchor="middle" x="-94.2533" y="13.4637" font-family="Times,serif" font-size="14.00">ApplicationController</text>
<polyline fill="none" stroke="black" points="-165.253,21.2637 -23.2533,21.2637 "/>
<polyline fill="none" stroke="black" points="-165.253,45.2637 -23.2533,45.2637 "/>
<polyline fill="none" stroke="black" points="-165.253,69.2637 -23.2533,69.2637 "/>
<text text-anchor="start" x="-157.253" y="84.4637" font-family="Times,serif" font-size="14.00">_layout</text>
</g>
<!-- InstitutionsController -->
<g id="node3" class="node"><title>InstitutionsController</title>
<path fill="none" stroke="black" d="M-6.714,-18.4634C-6.714,-18.4634 109.286,-18.4634 109.286,-18.4634 115.286,-18.4634 121.286,-24.4634 121.286,-30.4634 121.286,-30.4634 121.286,-249.463 121.286,-249.463 121.286,-255.463 115.286,-261.463 109.286,-261.463 109.286,-261.463 -6.714,-261.463 -6.714,-261.463 -12.714,-261.463 -18.714,-255.463 -18.714,-249.463 -18.714,-249.463 -18.714,-30.4634 -18.714,-30.4634 -18.714,-24.4634 -12.714,-18.4634 -6.714,-18.4634"/>
<text text-anchor="middle" x="51.286" y="-246.263" font-family="Times,serif" font-size="14.00">InstitutionsController</text>
<polyline fill="none" stroke="black" points="-18.714,-238.463 121.286,-238.463 "/>
<text text-anchor="start" x="-10.714" y="-223.263" font-family="Times,serif" font-size="14.00">update</text>
<text text-anchor="start" x="-10.714" y="-208.263" font-family="Times,serif" font-size="14.00">destroy</text>
<text text-anchor="start" x="-10.714" y="-193.263" font-family="Times,serif" font-size="14.00">edit</text>
<text text-anchor="start" x="-10.714" y="-178.263" font-family="Times,serif" font-size="14.00">import</text>
<text text-anchor="start" x="-10.714" y="-163.263" font-family="Times,serif" font-size="14.00">index</text>
<text text-anchor="start" x="-10.714" y="-148.263" font-family="Times,serif" font-size="14.00">new</text>
<text text-anchor="start" x="-10.714" y="-133.263" font-family="Times,serif" font-size="14.00">new_import</text>
<text text-anchor="start" x="-10.714" y="-118.263" font-family="Times,serif" font-size="14.00">show</text>
<text text-anchor="start" x="-10.714" y="-103.263" font-family="Times,serif" font-size="14.00">create</text>
<polyline fill="none" stroke="black" points="-18.714,-95.4634 121.286,-95.4634 "/>
<polyline fill="none" stroke="black" points="-18.714,-71.4634 121.286,-71.4634 "/>
<text text-anchor="start" x="-10.714" y="-56.2634" font-family="Times,serif" font-size="14.00">_layout</text>
<text text-anchor="start" x="-10.714" y="-41.2634" font-family="Times,serif" font-size="14.00">institution_params</text>
<text text-anchor="start" x="-10.714" y="-26.2634" font-family="Times,serif" font-size="14.00">set_institution</text>
</g>
<!-- ApplicationController&#45;&gt;InstitutionsController -->
<g id="edge1" class="edge"><title>ApplicationController&#45;&gt;InstitutionsController</title>
<path fill="none" stroke="black" d="M-57.151,-1.95618C-45.4447,-16.8547 -32.1023,-33.8355 -18.875,-50.6698"/>
</g>
<!-- ExporterController -->
<g id="node4" class="node"><title>ExporterController</title>
<path fill="none" stroke="black" d="M8.3311,263.253C8.3311,263.253 109.331,263.253 109.331,263.253 115.331,263.253 121.331,257.253 121.331,251.253 121.331,251.253 121.331,167.253 121.331,167.253 121.331,161.253 115.331,155.253 109.331,155.253 109.331,155.253 8.3311,155.253 8.3311,155.253 2.3311,155.253 -3.6689,161.253 -3.6689,167.253 -3.6689,167.253 -3.6689,251.253 -3.6689,251.253 -3.6689,257.253 2.3311,263.253 8.3311,263.253"/>
<text text-anchor="middle" x="58.8311" y="170.453" font-family="Times,serif" font-size="14.00">ExporterController</text>
<polyline fill="none" stroke="black" points="-3.6689,178.253 121.331,178.253 "/>
<text text-anchor="start" x="4.3311" y="193.453" font-family="Times,serif" font-size="14.00">institutions</text>
<text text-anchor="start" x="4.3311" y="208.453" font-family="Times,serif" font-size="14.00">locations</text>
<polyline fill="none" stroke="black" points="-3.6689,216.253 121.331,216.253 "/>
<polyline fill="none" stroke="black" points="-3.6689,240.253 121.331,240.253 "/>
<text text-anchor="start" x="4.3311" y="255.453" font-family="Times,serif" font-size="14.00">_layout</text>
</g>
<!-- ApplicationController&#45;&gt;ExporterController -->
<g id="edge2" class="edge"><title>ApplicationController&#45;&gt;ExporterController</title>
<path fill="none" stroke="black" d="M-49.9749,92.6961C-31.7843,112.183 -10.6179,134.857 8.18506,154.999"/>
</g>
</g>
</svg>
