<?xml version="1.0" encoding="UTF-8" standalone="no"?>
<!DOCTYPE svg PUBLIC "-//W3C//DTD SVG 1.1//EN"
 "http://www.w3.org/Graphics/SVG/1.1/DTD/svg11.dtd">
<!-- Generated by graphviz version 2.38.0 (20140413.2041)
 -->
<!-- Title: controllers_diagram Pages: 1 -->
<svg width="319pt" height="216pt"
 viewBox="0.00 0.00 318.50 215.50" xmlns="http://www.w3.org/2000/svg" xmlns:xlink="http://www.w3.org/1999/xlink">
<g id="graph0" class="graph" transform="scale(1 1) rotate(0) translate(102.5 169.5)">
<title>controllers_diagram</title>
<polygon fill="none" stroke="none" points="-102.5,46 -102.5,-169.5 216,-169.5 216,46 -102.5,46"/>
<!-- _diagram_info -->
<g id="node1" class="node"><title>_diagram_info</title>
<text text-anchor="start" x="-90.5" y="-21.6" font-family="Times,serif" font-size="13.00">Controllers diagram</text>
<text text-anchor="start" x="-90.5" y="-7.6" font-family="Times,serif" font-size="13.00">Date: Mar 15 2017 &#45; 06:13</text>
<text text-anchor="start" x="-90.5" y="6.4" font-family="Times,serif" font-size="13.00">Migration version: 0</text>
<text text-anchor="start" x="-90.5" y="20.4" font-family="Times,serif" font-size="13.00">Generated by RailRoady 1.5.2</text>
<text text-anchor="start" x="-90.5" y="34.4" font-family="Times,serif" font-size="13.00">http://railroady.prestonlee.com</text>
</g>
<!-- ApplicationController -->
<g id="node2" class="node"><title>ApplicationController</title>
<path fill="none" stroke="black" d="M82,-71C82,-71 200,-71 200,-71 206,-71 212,-77 212,-83 212,-83 212,-153 212,-153 212,-159 206,-165 200,-165 200,-165 82,-165 82,-165 76,-165 70,-159 70,-153 70,-153 70,-83 70,-83 70,-77 76,-71 82,-71"/>
<text text-anchor="middle" x="141" y="-149.8" font-family="Times,serif" font-size="14.00">ApplicationController</text>
<polyline fill="none" stroke="black" points="70,-142 212,-142 "/>
<polyline fill="none" stroke="black" points="70,-118 212,-118 "/>
<polyline fill="none" stroke="black" points="70,-94 212,-94 "/>
<text text-anchor="start" x="78" y="-78.8" font-family="Times,serif" font-size="14.00">_layout</text>
</g>
</g>
</svg>
