<?xml version="1.0" encoding="UTF-8" standalone="no"?>
<!DOCTYPE svg PUBLIC "-//W3C//DTD SVG 1.1//EN"
 "http://www.w3.org/Graphics/SVG/1.1/DTD/svg11.dtd">
<!-- Generated by graphviz version 2.40.1 (20161225.0304)
 -->
<!-- Title: controllers_diagram Pages: 1 -->
<svg width="374pt" height="389pt"
 viewBox="0.00 0.00 374.00 389.00" xmlns="http://www.w3.org/2000/svg" xmlns:xlink="http://www.w3.org/1999/xlink">
<g id="graph0" class="graph" transform="scale(1 1) rotate(0) translate(4 385)">
<title>controllers_diagram</title>
<polygon fill="transparent" stroke="transparent" points="-4,4 -4,-385 370,-385 370,4 -4,4"/>
<!-- _diagram_info -->
<g id="node1" class="node">
<title>_diagram_info</title>
<text text-anchor="start" x="178" y="-114.6" font-family="Times,serif" font-size="13.00" fill="#000000">Controllers diagram</text>
<text text-anchor="start" x="178" y="-100.6" font-family="Times,serif" font-size="13.00" fill="#000000">Date: Apr 10 2017 &#45; 23:20</text>
<text text-anchor="start" x="178" y="-86.6" font-family="Times,serif" font-size="13.00" fill="#000000">Migration version: 20170410181024</text>
<text text-anchor="start" x="178" y="-72.6" font-family="Times,serif" font-size="13.00" fill="#000000">Generated by RailRoady 1.5.2</text>
<text text-anchor="start" x="178" y="-58.6" font-family="Times,serif" font-size="13.00" fill="#000000">http://railroady.prestonlee.com</text>
</g>
<!-- ApplicationController -->
<g id="node2" class="node">
<title>ApplicationController</title>
<path fill="none" stroke="#000000" d="M182,-170.5C182,-170.5 300,-170.5 300,-170.5 306,-170.5 312,-176.5 312,-182.5 312,-182.5 312,-252.5 312,-252.5 312,-258.5 306,-264.5 300,-264.5 300,-264.5 182,-264.5 182,-264.5 176,-264.5 170,-258.5 170,-252.5 170,-252.5 170,-182.5 170,-182.5 170,-176.5 176,-170.5 182,-170.5"/>
<text text-anchor="middle" x="241" y="-249.3" font-family="Times,serif" font-size="14.00" fill="#000000">ApplicationController</text>
<polyline fill="none" stroke="#000000" points="170,-241.5 312,-241.5 "/>
<polyline fill="none" stroke="#000000" points="170,-217.5 312,-217.5 "/>
<polyline fill="none" stroke="#000000" points="170,-193.5 312,-193.5 "/>
<text text-anchor="start" x="178" y="-178.3" font-family="Times,serif" font-size="14.00" fill="#000000">_layout</text>
</g>
<!-- InstitutionsController -->
<g id="node3" class="node">
<title>InstitutionsController</title>
<path fill="none" stroke="#000000" d="M12,-.5C12,-.5 128,-.5 128,-.5 134,-.5 140,-6.5 140,-12.5 140,-12.5 140,-231.5 140,-231.5 140,-237.5 134,-243.5 128,-243.5 128,-243.5 12,-243.5 12,-243.5 6,-243.5 0,-237.5 0,-231.5 0,-231.5 0,-12.5 0,-12.5 0,-6.5 6,-.5 12,-.5"/>
<text text-anchor="middle" x="70" y="-228.3" font-family="Times,serif" font-size="14.00" fill="#000000">InstitutionsController</text>
<polyline fill="none" stroke="#000000" points="0,-220.5 140,-220.5 "/>
<text text-anchor="start" x="8" y="-205.3" font-family="Times,serif" font-size="14.00" fill="#000000">update</text>
<text text-anchor="start" x="8" y="-190.3" font-family="Times,serif" font-size="14.00" fill="#000000">destroy</text>
<text text-anchor="start" x="8" y="-175.3" font-family="Times,serif" font-size="14.00" fill="#000000">edit</text>
<text text-anchor="start" x="8" y="-160.3" font-family="Times,serif" font-size="14.00" fill="#000000">import</text>
<text text-anchor="start" x="8" y="-145.3" font-family="Times,serif" font-size="14.00" fill="#000000">index</text>
<text text-anchor="start" x="8" y="-130.3" font-family="Times,serif" font-size="14.00" fill="#000000">new</text>
<text text-anchor="start" x="8" y="-115.3" font-family="Times,serif" font-size="14.00" fill="#000000">new_import</text>
<text text-anchor="start" x="8" y="-100.3" font-family="Times,serif" font-size="14.00" fill="#000000">show</text>
<text text-anchor="start" x="8" y="-85.3" font-family="Times,serif" font-size="14.00" fill="#000000">create</text>
<polyline fill="none" stroke="#000000" points="0,-77.5 140,-77.5 "/>
<polyline fill="none" stroke="#000000" points="0,-53.5 140,-53.5 "/>
<text text-anchor="start" x="8" y="-38.3" font-family="Times,serif" font-size="14.00" fill="#000000">_layout</text>
<text text-anchor="start" x="8" y="-23.3" font-family="Times,serif" font-size="14.00" fill="#000000">institution_params</text>
<text text-anchor="start" x="8" y="-8.3" font-family="Times,serif" font-size="14.00" fill="#000000">set_institution</text>
</g>
<!-- ExporterController -->
<g id="node4" class="node">
<title>ExporterController</title>
<path fill="none" stroke="#000000" d="M29,-272.5C29,-272.5 130,-272.5 130,-272.5 136,-272.5 142,-278.5 142,-284.5 142,-284.5 142,-368.5 142,-368.5 142,-374.5 136,-380.5 130,-380.5 130,-380.5 29,-380.5 29,-380.5 23,-380.5 17,-374.5 17,-368.5 17,-368.5 17,-284.5 17,-284.5 17,-278.5 23,-272.5 29,-272.5"/>
<text text-anchor="middle" x="79.5" y="-365.3" font-family="Times,serif" font-size="14.00" fill="#000000">ExporterController</text>
<polyline fill="none" stroke="#000000" points="17,-357.5 142,-357.5 "/>
<text text-anchor="start" x="25" y="-342.3" font-family="Times,serif" font-size="14.00" fill="#000000">institutions</text>
<text text-anchor="start" x="25" y="-327.3" font-family="Times,serif" font-size="14.00" fill="#000000">locations</text>
<polyline fill="none" stroke="#000000" points="17,-319.5 142,-319.5 "/>
<polyline fill="none" stroke="#000000" points="17,-295.5 142,-295.5 "/>
<text text-anchor="start" x="25" y="-280.3" font-family="Times,serif" font-size="14.00" fill="#000000">_layout</text>
</g>
</g>
</svg>
