<?xml version="1.0" encoding="UTF-8" standalone="no"?>
<!DOCTYPE svg PUBLIC "-//W3C//DTD SVG 1.1//EN"
 "http://www.w3.org/Graphics/SVG/1.1/DTD/svg11.dtd">
<!-- Generated by graphviz version 2.40.1 (20161225.0304)
 -->
<!-- Title: controllers_diagram Pages: 1 -->
<svg width="656pt" height="645pt"
 viewBox="0.00 0.00 656.00 645.00" xmlns="http://www.w3.org/2000/svg" xmlns:xlink="http://www.w3.org/1999/xlink">
<g id="graph0" class="graph" transform="scale(1 1) rotate(0) translate(4 641)">
<title>controllers_diagram</title>
<polygon fill="transparent" stroke="transparent" points="-4,4 -4,-641 652,-641 652,4 -4,4"/>
<!-- _diagram_info -->
<g id="node1" class="node">
<title>_diagram_info</title>
<text text-anchor="start" x="376" y="-111.6" font-family="Times,serif" font-size="13.00" fill="#000000">Controllers diagram</text>
<text text-anchor="start" x="376" y="-97.6" font-family="Times,serif" font-size="13.00" fill="#000000">Date: May 08 2017 &#45; 05:21</text>
<text text-anchor="start" x="376" y="-83.6" font-family="Times,serif" font-size="13.00" fill="#000000">Migration version: 20170417212813</text>
<text text-anchor="start" x="376" y="-69.6" font-family="Times,serif" font-size="13.00" fill="#000000">Generated by RailRoady 1.5.2</text>
<text text-anchor="start" x="376" y="-55.6" font-family="Times,serif" font-size="13.00" fill="#000000">http://railroady.prestonlee.com</text>
</g>
<!-- Api::V1::LocationsController -->
<g id="node2" class="node">
<title>Api::V1::LocationsController</title>
<path fill="none" stroke="#000000" d="M172,-400.5C172,-400.5 328,-400.5 328,-400.5 334,-400.5 340,-406.5 340,-412.5 340,-412.5 340,-496.5 340,-496.5 340,-502.5 334,-508.5 328,-508.5 328,-508.5 172,-508.5 172,-508.5 166,-508.5 160,-502.5 160,-496.5 160,-496.5 160,-412.5 160,-412.5 160,-406.5 166,-400.5 172,-400.5"/>
<text text-anchor="middle" x="250" y="-493.3" font-family="Times,serif" font-size="14.00" fill="#000000">Api::V1::LocationsController</text>
<polyline fill="none" stroke="#000000" points="160,-485.5 340,-485.5 "/>
<text text-anchor="start" x="168" y="-470.3" font-family="Times,serif" font-size="14.00" fill="#000000">get</text>
<text text-anchor="start" x="168" y="-455.3" font-family="Times,serif" font-size="14.00" fill="#000000">set</text>
<polyline fill="none" stroke="#000000" points="160,-447.5 340,-447.5 "/>
<polyline fill="none" stroke="#000000" points="160,-423.5 340,-423.5 "/>
<text text-anchor="start" x="168" y="-408.3" font-family="Times,serif" font-size="14.00" fill="#000000">_layout</text>
</g>
<!-- Api::V1::SsidsController -->
<g id="node3" class="node">
<title>Api::V1::SsidsController</title>
<path fill="none" stroke="#000000" d="M12,-256.5C12,-256.5 142,-256.5 142,-256.5 148,-256.5 154,-262.5 154,-268.5 154,-268.5 154,-352.5 154,-352.5 154,-358.5 148,-364.5 142,-364.5 142,-364.5 12,-364.5 12,-364.5 6,-364.5 0,-358.5 0,-352.5 0,-352.5 0,-268.5 0,-268.5 0,-262.5 6,-256.5 12,-256.5"/>
<text text-anchor="middle" x="77" y="-349.3" font-family="Times,serif" font-size="14.00" fill="#000000">Api::V1::SsidsController</text>
<polyline fill="none" stroke="#000000" points="0,-341.5 154,-341.5 "/>
<text text-anchor="start" x="8" y="-326.3" font-family="Times,serif" font-size="14.00" fill="#000000">get</text>
<text text-anchor="start" x="8" y="-311.3" font-family="Times,serif" font-size="14.00" fill="#000000">set</text>
<polyline fill="none" stroke="#000000" points="0,-303.5 154,-303.5 "/>
<polyline fill="none" stroke="#000000" points="0,-279.5 154,-279.5 "/>
<text text-anchor="start" x="8" y="-264.3" font-family="Times,serif" font-size="14.00" fill="#000000">_layout</text>
</g>
<!-- Api::V1::BaseController -->
<g id="node4" class="node">
<title>Api::V1::BaseController</title>
<path fill="none" stroke="#000000" d="M508,-480.5C508,-480.5 636,-480.5 636,-480.5 642,-480.5 648,-486.5 648,-492.5 648,-492.5 648,-576.5 648,-576.5 648,-582.5 642,-588.5 636,-588.5 636,-588.5 508,-588.5 508,-588.5 502,-588.5 496,-582.5 496,-576.5 496,-576.5 496,-492.5 496,-492.5 496,-486.5 502,-480.5 508,-480.5"/>
<text text-anchor="middle" x="572" y="-573.3" font-family="Times,serif" font-size="14.00" fill="#000000">Api::V1::BaseController</text>
<polyline fill="none" stroke="#000000" points="496,-565.5 648,-565.5 "/>
<text text-anchor="start" x="504" y="-550.3" font-family="Times,serif" font-size="14.00" fill="#000000">apikeyToInstitutionId</text>
<text text-anchor="start" x="504" y="-535.3" font-family="Times,serif" font-size="14.00" fill="#000000">destroy_session</text>
<polyline fill="none" stroke="#000000" points="496,-527.5 648,-527.5 "/>
<polyline fill="none" stroke="#000000" points="496,-503.5 648,-503.5 "/>
<text text-anchor="start" x="504" y="-488.3" font-family="Times,serif" font-size="14.00" fill="#000000">_layout</text>
</g>
<!-- Api::V1::WelcomeController -->
<g id="node5" class="node">
<title>Api::V1::WelcomeController</title>
<path fill="none" stroke="#000000" d="M380,-336.5C380,-336.5 535,-336.5 535,-336.5 541,-336.5 547,-342.5 547,-348.5 547,-348.5 547,-432.5 547,-432.5 547,-438.5 541,-444.5 535,-444.5 535,-444.5 380,-444.5 380,-444.5 374,-444.5 368,-438.5 368,-432.5 368,-432.5 368,-348.5 368,-348.5 368,-342.5 374,-336.5 380,-336.5"/>
<text text-anchor="middle" x="457.5" y="-429.3" font-family="Times,serif" font-size="14.00" fill="#000000">Api::V1::WelcomeController</text>
<polyline fill="none" stroke="#000000" points="368,-421.5 547,-421.5 "/>
<text text-anchor="start" x="376" y="-406.3" font-family="Times,serif" font-size="14.00" fill="#000000">doc</text>
<text text-anchor="start" x="376" y="-391.3" font-family="Times,serif" font-size="14.00" fill="#000000">index</text>
<polyline fill="none" stroke="#000000" points="368,-383.5 547,-383.5 "/>
<polyline fill="none" stroke="#000000" points="368,-359.5 547,-359.5 "/>
<text text-anchor="start" x="376" y="-344.3" font-family="Times,serif" font-size="14.00" fill="#000000">_layout</text>
</g>
<!-- Api::V1::EntriesController -->
<g id="node6" class="node">
<title>Api::V1::EntriesController</title>
<path fill="none" stroke="#000000" d="M380,-160.5C380,-160.5 522,-160.5 522,-160.5 528,-160.5 534,-166.5 534,-172.5 534,-172.5 534,-286.5 534,-286.5 534,-292.5 528,-298.5 522,-298.5 522,-298.5 380,-298.5 380,-298.5 374,-298.5 368,-292.5 368,-286.5 368,-286.5 368,-172.5 368,-172.5 368,-166.5 374,-160.5 380,-160.5"/>
<text text-anchor="middle" x="451" y="-283.3" font-family="Times,serif" font-size="14.00" fill="#000000">Api::V1::EntriesController</text>
<polyline fill="none" stroke="#000000" points="368,-275.5 534,-275.5 "/>
<text text-anchor="start" x="376" y="-260.3" font-family="Times,serif" font-size="14.00" fill="#000000">get</text>
<text text-anchor="start" x="376" y="-245.3" font-family="Times,serif" font-size="14.00" fill="#000000">set</text>
<polyline fill="none" stroke="#000000" points="368,-237.5 534,-237.5 "/>
<polyline fill="none" stroke="#000000" points="368,-213.5 534,-213.5 "/>
<text text-anchor="start" x="376" y="-198.3" font-family="Times,serif" font-size="14.00" fill="#000000">_layout</text>
<text text-anchor="start" x="376" y="-183.3" font-family="Times,serif" font-size="14.00" fill="#000000">entry_params</text>
<text text-anchor="start" x="376" y="-168.3" font-family="Times,serif" font-size="14.00" fill="#000000">get_institution_id</text>
</g>
<!-- ApplicationController -->
<g id="node7" class="node">
<title>ApplicationController</title>
<path fill="none" stroke="#000000" d="M204,-.5C204,-.5 322,-.5 322,-.5 328,-.5 334,-6.5 334,-12.5 334,-12.5 334,-81.5 334,-81.5 334,-87.5 328,-93.5 322,-93.5 322,-93.5 204,-93.5 204,-93.5 198,-93.5 192,-87.5 192,-81.5 192,-81.5 192,-12.5 192,-12.5 192,-6.5 198,-.5 204,-.5"/>
<text text-anchor="middle" x="263" y="-78.3" font-family="Times,serif" font-size="14.00" fill="#000000">ApplicationController</text>
<polyline fill="none" stroke="#000000" points="192,-70.5 334,-70.5 "/>
<text text-anchor="start" x="200" y="-55.3" font-family="Times,serif" font-size="14.00" fill="#000000">authenticate</text>
<polyline fill="none" stroke="#000000" points="192,-47.5 334,-47.5 "/>
<polyline fill="none" stroke="#000000" points="192,-23.5 334,-23.5 "/>
<text text-anchor="start" x="200" y="-8.3" font-family="Times,serif" font-size="14.00" fill="#000000">_layout</text>
</g>
<!-- WelcomeController -->
<g id="node8" class="node">
<title>WelcomeController</title>
<path fill="none" stroke="#000000" d="M12,-528.5C12,-528.5 116,-528.5 116,-528.5 122,-528.5 128,-534.5 128,-540.5 128,-540.5 128,-624.5 128,-624.5 128,-630.5 122,-636.5 116,-636.5 116,-636.5 12,-636.5 12,-636.5 6,-636.5 0,-630.5 0,-624.5 0,-624.5 0,-540.5 0,-540.5 0,-534.5 6,-528.5 12,-528.5"/>
<text text-anchor="middle" x="64" y="-621.3" font-family="Times,serif" font-size="14.00" fill="#000000">WelcomeController</text>
<polyline fill="none" stroke="#000000" points="0,-613.5 128,-613.5 "/>
<text text-anchor="start" x="8" y="-598.3" font-family="Times,serif" font-size="14.00" fill="#000000">apidoc</text>
<text text-anchor="start" x="8" y="-583.3" font-family="Times,serif" font-size="14.00" fill="#000000">index</text>
<polyline fill="none" stroke="#000000" points="0,-575.5 128,-575.5 "/>
<polyline fill="none" stroke="#000000" points="0,-551.5 128,-551.5 "/>
<text text-anchor="start" x="8" y="-536.3" font-family="Times,serif" font-size="14.00" fill="#000000">_layout</text>
</g>
<!-- InstitutionsController -->
<g id="node9" class="node">
<title>InstitutionsController</title>
<path fill="none" stroke="#000000" d="M204,-128.5C204,-128.5 320,-128.5 320,-128.5 326,-128.5 332,-134.5 332,-140.5 332,-140.5 332,-359.5 332,-359.5 332,-365.5 326,-371.5 320,-371.5 320,-371.5 204,-371.5 204,-371.5 198,-371.5 192,-365.5 192,-359.5 192,-359.5 192,-140.5 192,-140.5 192,-134.5 198,-128.5 204,-128.5"/>
<text text-anchor="middle" x="262" y="-356.3" font-family="Times,serif" font-size="14.00" fill="#000000">InstitutionsController</text>
<polyline fill="none" stroke="#000000" points="192,-348.5 332,-348.5 "/>
<text text-anchor="start" x="200" y="-333.3" font-family="Times,serif" font-size="14.00" fill="#000000">update</text>
<text text-anchor="start" x="200" y="-318.3" font-family="Times,serif" font-size="14.00" fill="#000000">destroy</text>
<text text-anchor="start" x="200" y="-303.3" font-family="Times,serif" font-size="14.00" fill="#000000">edit</text>
<text text-anchor="start" x="200" y="-288.3" font-family="Times,serif" font-size="14.00" fill="#000000">import</text>
<text text-anchor="start" x="200" y="-273.3" font-family="Times,serif" font-size="14.00" fill="#000000">index</text>
<text text-anchor="start" x="200" y="-258.3" font-family="Times,serif" font-size="14.00" fill="#000000">new</text>
<text text-anchor="start" x="200" y="-243.3" font-family="Times,serif" font-size="14.00" fill="#000000">new_import</text>
<text text-anchor="start" x="200" y="-228.3" font-family="Times,serif" font-size="14.00" fill="#000000">show</text>
<text text-anchor="start" x="200" y="-213.3" font-family="Times,serif" font-size="14.00" fill="#000000">create</text>
<polyline fill="none" stroke="#000000" points="192,-205.5 332,-205.5 "/>
<polyline fill="none" stroke="#000000" points="192,-181.5 332,-181.5 "/>
<text text-anchor="start" x="200" y="-166.3" font-family="Times,serif" font-size="14.00" fill="#000000">_layout</text>
<text text-anchor="start" x="200" y="-151.3" font-family="Times,serif" font-size="14.00" fill="#000000">institution_params</text>
<text text-anchor="start" x="200" y="-136.3" font-family="Times,serif" font-size="14.00" fill="#000000">set_institution</text>
</g>
<!-- ExporterController -->
<g id="node10" class="node">
<title>ExporterController</title>
<path fill="none" stroke="#000000" d="M44,-96.5C44,-96.5 145,-96.5 145,-96.5 151,-96.5 157,-102.5 157,-108.5 157,-108.5 157,-207.5 157,-207.5 157,-213.5 151,-219.5 145,-219.5 145,-219.5 44,-219.5 44,-219.5 38,-219.5 32,-213.5 32,-207.5 32,-207.5 32,-108.5 32,-108.5 32,-102.5 38,-96.5 44,-96.5"/>
<text text-anchor="middle" x="94.5" y="-204.3" font-family="Times,serif" font-size="14.00" fill="#000000">ExporterController</text>
<polyline fill="none" stroke="#000000" points="32,-196.5 157,-196.5 "/>
<text text-anchor="start" x="40" y="-181.3" font-family="Times,serif" font-size="14.00" fill="#000000">add_institution_for</text>
<text text-anchor="start" x="40" y="-166.3" font-family="Times,serif" font-size="14.00" fill="#000000">add_locations_for</text>
<text text-anchor="start" x="40" y="-151.3" font-family="Times,serif" font-size="14.00" fill="#000000">institutions</text>
<polyline fill="none" stroke="#000000" points="32,-143.5 157,-143.5 "/>
<polyline fill="none" stroke="#000000" points="32,-119.5 157,-119.5 "/>
<text text-anchor="start" x="40" y="-104.3" font-family="Times,serif" font-size="14.00" fill="#000000">_layout</text>
</g>
</g>
</svg>
