<?xml version="1.0" encoding="UTF-8" standalone="no"?>
<!DOCTYPE svg PUBLIC "-//W3C//DTD SVG 1.1//EN"
 "http://www.w3.org/Graphics/SVG/1.1/DTD/svg11.dtd">
<!-- Generated by graphviz version 2.38.0 (20140413.2041)
 -->
<!-- Title: controllers_diagram Pages: 1 -->
<svg width="380pt" height="358pt"
 viewBox="0.00 0.00 380.00 357.50" xmlns="http://www.w3.org/2000/svg" xmlns:xlink="http://www.w3.org/1999/xlink">
<g id="graph0" class="graph" transform="scale(1 1) rotate(0) translate(84 241.5)">
<title>controllers_diagram</title>
<polygon fill="none" stroke="none" points="-84,116 -84,-241.5 296,-241.5 296,116 -84,116"/>
<!-- _diagram_info -->
<g id="node1" class="node"><title>_diagram_info</title>
<text text-anchor="start" x="104" y="32.4" font-family="Times,serif" font-size="13.00">Controllers diagram</text>
<text text-anchor="start" x="104" y="46.4" font-family="Times,serif" font-size="13.00">Date: Mar 17 2017 &#45; 06:49</text>
<text text-anchor="start" x="104" y="60.4" font-family="Times,serif" font-size="13.00">Migration version: 20170317043840</text>
<text text-anchor="start" x="104" y="74.4" font-family="Times,serif" font-size="13.00">Generated by RailRoady 1.5.2</text>
<text text-anchor="start" x="104" y="88.4" font-family="Times,serif" font-size="13.00">http://railroady.prestonlee.com</text>
</g>
<!-- ApplicationController -->
<g id="node2" class="node"><title>ApplicationController</title>
<path fill="none" stroke="black" d="M108,-17C108,-17 226,-17 226,-17 232,-17 238,-23 238,-29 238,-29 238,-99 238,-99 238,-105 232,-111 226,-111 226,-111 108,-111 108,-111 102,-111 96,-105 96,-99 96,-99 96,-29 96,-29 96,-23 102,-17 108,-17"/>
<text text-anchor="middle" x="167" y="-95.8" font-family="Times,serif" font-size="14.00">ApplicationController</text>
<polyline fill="none" stroke="black" points="96,-88 238,-88 "/>
<polyline fill="none" stroke="black" points="96,-64 238,-64 "/>
<polyline fill="none" stroke="black" points="96,-40 238,-40 "/>
<text text-anchor="start" x="104" y="-24.8" font-family="Times,serif" font-size="14.00">_layout</text>
</g>
<!-- InstitutionsController -->
<g id="node3" class="node"><title>InstitutionsController</title>
<path fill="none" stroke="black" d="M-68,111.5C-68,111.5 48,111.5 48,111.5 54,111.5 60,105.5 60,99.5 60,99.5 60,-89.5 60,-89.5 60,-95.5 54,-101.5 48,-101.5 48,-101.5 -68,-101.5 -68,-101.5 -74,-101.5 -80,-95.5 -80,-89.5 -80,-89.5 -80,99.5 -80,99.5 -80,105.5 -74,111.5 -68,111.5"/>
<text text-anchor="middle" x="-10" y="-86.3" font-family="Times,serif" font-size="14.00">InstitutionsController</text>
<polyline fill="none" stroke="black" points="-80,-78.5 60,-78.5 "/>
<text text-anchor="start" x="-72" y="-63.3" font-family="Times,serif" font-size="14.00">index</text>
<text text-anchor="start" x="-72" y="-48.3" font-family="Times,serif" font-size="14.00">destroy</text>
<text text-anchor="start" x="-72" y="-33.3" font-family="Times,serif" font-size="14.00">edit</text>
<text text-anchor="start" x="-72" y="-18.3" font-family="Times,serif" font-size="14.00">create</text>
<text text-anchor="start" x="-72" y="-3.3" font-family="Times,serif" font-size="14.00">new</text>
<text text-anchor="start" x="-72" y="11.7" font-family="Times,serif" font-size="14.00">show</text>
<text text-anchor="start" x="-72" y="26.7" font-family="Times,serif" font-size="14.00">update</text>
<polyline fill="none" stroke="black" points="-80,34.5 60,34.5 "/>
<polyline fill="none" stroke="black" points="-80,58.5 60,58.5 "/>
<text text-anchor="start" x="-72" y="73.7" font-family="Times,serif" font-size="14.00">_layout</text>
<text text-anchor="start" x="-72" y="88.7" font-family="Times,serif" font-size="14.00">institution_params</text>
<text text-anchor="start" x="-72" y="103.7" font-family="Times,serif" font-size="14.00">set_institution</text>
</g>
<!-- ExporterController -->
<g id="node4" class="node"><title>ExporterController</title>
<path fill="none" stroke="black" d="M-52.5,-129C-52.5,-129 48.5,-129 48.5,-129 54.5,-129 60.5,-135 60.5,-141 60.5,-141 60.5,-225 60.5,-225 60.5,-231 54.5,-237 48.5,-237 48.5,-237 -52.5,-237 -52.5,-237 -58.5,-237 -64.5,-231 -64.5,-225 -64.5,-225 -64.5,-141 -64.5,-141 -64.5,-135 -58.5,-129 -52.5,-129"/>
<text text-anchor="middle" x="-2" y="-221.8" font-family="Times,serif" font-size="14.00">ExporterController</text>
<polyline fill="none" stroke="black" points="-64.5,-214 60.5,-214 "/>
<text text-anchor="start" x="-56.5" y="-198.8" font-family="Times,serif" font-size="14.00">institutions</text>
<text text-anchor="start" x="-56.5" y="-183.8" font-family="Times,serif" font-size="14.00">locations</text>
<polyline fill="none" stroke="black" points="-64.5,-176 60.5,-176 "/>
<polyline fill="none" stroke="black" points="-64.5,-152 60.5,-152 "/>
<text text-anchor="start" x="-56.5" y="-136.8" font-family="Times,serif" font-size="14.00">_layout</text>
</g>
</g>
</svg>
