<?xml version="1.0" encoding="UTF-8" standalone="no"?>
<!DOCTYPE svg PUBLIC "-//W3C//DTD SVG 1.1//EN"
 "http://www.w3.org/Graphics/SVG/1.1/DTD/svg11.dtd">
<!-- Generated by graphviz version 2.38.0 (20140413.2041)
 -->
<!-- Title: models_diagram Pages: 1 -->
<svg width="649pt" height="230pt"
 viewBox="0.00 0.00 648.65 230.00" xmlns="http://www.w3.org/2000/svg" xmlns:xlink="http://www.w3.org/1999/xlink">
<g id="graph0" class="graph" transform="scale(1 1) rotate(0) translate(4 226)">
<title>models_diagram</title>
<polygon fill="none" stroke="none" points="-4,4 -4,-226 644.646,-226 644.646,4 -4,4"/>
<!-- _diagram_info -->
<g id="node1" class="node"><title>_diagram_info</title>
<text text-anchor="start" x="8" y="-207.6" font-family="Times,serif" font-size="13.00">Models diagram</text>
<text text-anchor="start" x="8" y="-193.6" font-family="Times,serif" font-size="13.00">Date: Mar 31 2017 &#45; 15:32</text>
<text text-anchor="start" x="8" y="-179.6" font-family="Times,serif" font-size="13.00">Migration version: 20170331122823</text>
<text text-anchor="start" x="8" y="-165.6" font-family="Times,serif" font-size="13.00">Generated by RailRoady 1.5.2</text>
<text text-anchor="start" x="8" y="-151.6" font-family="Times,serif" font-size="13.00">http://railroady.prestonlee.com</text>
</g>
<!-- Location -->
<g id="node2" class="node"><title>Location</title>
<ellipse fill="none" stroke="black" cx="257" cy="-183" rx="42.7926" ry="18"/>
<text text-anchor="middle" x="257" y="-179.3" font-family="Times,serif" font-size="14.00">Location</text>
</g>
<!-- Entry -->
<g id="node3" class="node"><title>Entry</title>
<ellipse fill="none" stroke="black" cx="257" cy="-90" rx="31.3957" ry="18"/>
<text text-anchor="middle" x="257" y="-86.3" font-family="Times,serif" font-size="14.00">Entry</text>
</g>
<!-- Location&#45;&gt;Entry -->
<g id="edge1" class="edge"><title>Location&#45;&gt;Entry</title>
<path fill="none" stroke="#a00aef" d="M250.878,-156.674C250.074,-144.587 250.042,-130.118 250.782,-117.842"/>
<ellipse fill="none" stroke="#a00aef" cx="251.244" cy="-160.898" rx="4" ry="4"/>
<polygon fill="#a00aef" stroke="#a00aef" points="250.794,-117.697 256.115,-108.109 251.213,-112.715 251.631,-107.732 251.631,-107.732 251.631,-107.732 251.213,-112.715 247.147,-107.355 250.794,-117.697 250.794,-117.697"/>
</g>
<!-- Entry&#45;&gt;Location -->
<g id="edge2" class="edge"><title>Entry&#45;&gt;Location</title>
<path fill="none" stroke="#128de7" d="M263.1,-115.999C263.959,-128.651 263.967,-143.976 263.122,-156.674"/>
<ellipse fill="none" stroke="#128de7" cx="262.721" cy="-111.717" rx="4" ry="4"/>
<ellipse fill="#128de7" stroke="#128de7" cx="262.756" cy="-160.898" rx="4" ry="4"/>
</g>
<!-- Orgssid -->
<g id="node6" class="node"><title>Orgssid</title>
<ellipse fill="none" stroke="black" cx="308" cy="-18" rx="38.1938" ry="18"/>
<text text-anchor="middle" x="308" y="-14.3" font-family="Times,serif" font-size="14.00">Orgssid</text>
</g>
<!-- Entry&#45;&gt;Orgssid -->
<g id="edge4" class="edge"><title>Entry&#45;&gt;Orgssid</title>
<path fill="none" stroke="#c18f25" d="M267.865,-65.2634C273.208,-57.2854 279.703,-48.4335 285.952,-40.6264"/>
<ellipse fill="none" stroke="#c18f25" cx="265.641" cy="-68.6973" rx="4.00002" ry="4.00002"/>
<ellipse fill="#c18f25" stroke="#c18f25" cx="288.571" cy="-37.4447" rx="4.00002" ry="4.00002"/>
</g>
<!-- LocName -->
<g id="node7" class="node"><title>LocName</title>
<ellipse fill="none" stroke="black" cx="206" cy="-18" rx="46.2923" ry="18"/>
<text text-anchor="middle" x="206" y="-14.3" font-family="Times,serif" font-size="14.00">LocName</text>
</g>
<!-- Entry&#45;&gt;LocName -->
<g id="edge3" class="edge"><title>Entry&#45;&gt;LocName</title>
<path fill="none" stroke="#d0860f" d="M240.613,-66.5087C235.391,-59.3406 229.581,-51.3666 224.236,-44.0303"/>
<ellipse fill="none" stroke="#d0860f" cx="243.072" cy="-69.883" rx="4.00002" ry="4.00002"/>
<polygon fill="#d0860f" stroke="#d0860f" points="224.127,-43.8797 221.875,-33.1475 221.182,-39.8385 218.238,-35.7973 218.238,-35.7973 218.238,-35.7973 221.182,-39.8385 214.601,-38.4472 224.127,-43.8797 224.127,-43.8797"/>
</g>
<!-- Institution -->
<g id="node4" class="node"><title>Institution</title>
<ellipse fill="none" stroke="black" cx="426" cy="-183" rx="49.2915" ry="18"/>
<text text-anchor="middle" x="426" y="-179.3" font-family="Times,serif" font-size="14.00">Institution</text>
</g>
<!-- Institution&#45;&gt;Entry -->
<g id="edge9" class="edge"><title>Institution&#45;&gt;Entry</title>
<path fill="none" stroke="#784caf" d="M392.277,-163.841C361.949,-147.511 317.749,-123.711 288.217,-107.809"/>
<ellipse fill="none" stroke="#784caf" cx="396.072" cy="-165.885" rx="4.00002" ry="4.00002"/>
<polygon fill="#784caf" stroke="#784caf" points="287.985,-107.684 281.314,-98.9813 283.583,-105.314 279.181,-102.943 279.181,-102.943 279.181,-102.943 283.583,-105.314 277.047,-106.906 287.985,-107.684 287.985,-107.684"/>
</g>
<!-- Orgpolicy -->
<g id="node5" class="node"><title>Orgpolicy</title>
<ellipse fill="none" stroke="black" cx="352" cy="-90" rx="46.2923" ry="18"/>
<text text-anchor="middle" x="352" y="-86.3" font-family="Times,serif" font-size="14.00">Orgpolicy</text>
</g>
<!-- Institution&#45;&gt;Orgpolicy -->
<g id="edge7" class="edge"><title>Institution&#45;&gt;Orgpolicy</title>
<path fill="none" stroke="#65e3c8" d="M407.088,-158.744C396.245,-145.409 382.651,-128.693 371.681,-115.203"/>
<ellipse fill="none" stroke="#65e3c8" cx="409.904" cy="-162.206" rx="4.00002" ry="4.00002"/>
<polygon fill="#65e3c8" stroke="#65e3c8" points="371.547,-115.037 368.729,-104.44 368.392,-111.158 365.238,-107.279 365.238,-107.279 365.238,-107.279 368.392,-111.158 361.746,-110.118 371.547,-115.037 371.547,-115.037"/>
</g>
<!-- Institution&#45;&gt;Orgssid -->
<g id="edge8" class="edge"><title>Institution&#45;&gt;Orgssid</title>
<path fill="none" stroke="#f26d69" d="M427.659,-156.734C427.943,-132.747 424.879,-96.7728 407,-72 393.112,-52.7576 370.049,-39.8316 349.676,-31.5658"/>
<ellipse fill="none" stroke="#f26d69" cx="427.538" cy="-160.987" rx="4" ry="4"/>
<polygon fill="#f26d69" stroke="#f26d69" points="349.594,-31.5346 341.844,-23.7761 344.92,-29.7587 340.246,-27.9827 340.246,-27.9827 340.246,-27.9827 344.92,-29.7587 338.648,-32.1892 349.594,-31.5346 349.594,-31.5346"/>
</g>
<!-- Orgname -->
<g id="node8" class="node"><title>Orgname</title>
<ellipse fill="none" stroke="black" cx="499" cy="-90" rx="44.6926" ry="18"/>
<text text-anchor="middle" x="499" y="-86.3" font-family="Times,serif" font-size="14.00">Orgname</text>
</g>
<!-- Institution&#45;&gt;Orgname -->
<g id="edge5" class="edge"><title>Institution&#45;&gt;Orgname</title>
<path fill="none" stroke="#715833" d="M444.656,-158.744C455.353,-145.409 468.763,-128.693 479.585,-115.203"/>
<ellipse fill="none" stroke="#715833" cx="441.892" cy="-162.189" rx="4.00002" ry="4.00002"/>
<polygon fill="#715833" stroke="#715833" points="479.684,-115.079 489.451,-110.095 482.812,-111.179 485.941,-107.279 485.941,-107.279 485.941,-107.279 482.812,-111.179 482.431,-104.463 479.684,-115.079 479.684,-115.079"/>
</g>
<!-- Orginfo -->
<g id="node9" class="node"><title>Orginfo</title>
<ellipse fill="none" stroke="black" cx="601" cy="-90" rx="39.7935" ry="18"/>
<text text-anchor="middle" x="601" y="-86.3" font-family="Times,serif" font-size="14.00">Orginfo</text>
</g>
<!-- Institution&#45;&gt;Orginfo -->
<g id="edge6" class="edge"><title>Institution&#45;&gt;Orginfo</title>
<path fill="none" stroke="#4dbe5a" d="M460.744,-163.933C491.525,-147.927 536.205,-124.693 566.816,-108.776"/>
<ellipse fill="none" stroke="#4dbe5a" cx="456.893" cy="-165.936" rx="4.00002" ry="4.00002"/>
<polygon fill="#4dbe5a" stroke="#4dbe5a" points="566.961,-108.7 577.91,-108.079 571.398,-106.393 575.834,-104.087 575.834,-104.087 575.834,-104.087 571.398,-106.393 573.758,-100.094 566.961,-108.7 566.961,-108.7"/>
</g>
<!-- Orgssid&#45;&gt;Entry -->
<g id="edge10" class="edge"><title>Orgssid&#45;&gt;Entry</title>
<path fill="none" stroke="#57833b" d="M297.124,-42.7536C291.959,-50.4648 285.719,-58.991 279.665,-66.6002"/>
<ellipse fill="none" stroke="#57833b" cx="299.355" cy="-39.3082" rx="4.00002" ry="4.00002"/>
<polygon fill="#57833b" stroke="#57833b" points="279.519,-66.7779 269.687,-71.6346 276.339,-70.6369 273.16,-74.496 273.16,-74.496 273.16,-74.496 276.339,-70.6369 276.633,-77.3574 279.519,-66.7779 279.519,-66.7779"/>
</g>
</g>
</svg>
