<?xml version="1.0" encoding="UTF-8" standalone="no"?>
<!DOCTYPE svg PUBLIC "-//W3C//DTD SVG 1.1//EN"
 "http://www.w3.org/Graphics/SVG/1.1/DTD/svg11.dtd">
<!-- Generated by graphviz version 2.38.0 (20140413.2041)
 -->
<!-- Title: models_diagram Pages: 1 -->
<svg width="463pt" height="158pt"
 viewBox="0.00 0.00 462.65 158.00" xmlns="http://www.w3.org/2000/svg" xmlns:xlink="http://www.w3.org/1999/xlink">
<g id="graph0" class="graph" transform="scale(1 1) rotate(0) translate(4 154)">
<title>models_diagram</title>
<polygon fill="none" stroke="none" points="-4,4 -4,-154 458.646,-154 458.646,4 -4,4"/>
<!-- _diagram_info -->
<g id="node1" class="node"><title>_diagram_info</title>
<text text-anchor="start" x="8" y="-135.6" font-family="Times,serif" font-size="13.00">Models diagram</text>
<text text-anchor="start" x="8" y="-121.6" font-family="Times,serif" font-size="13.00">Date: Mar 17 2017 &#45; 06:49</text>
<text text-anchor="start" x="8" y="-107.6" font-family="Times,serif" font-size="13.00">Migration version: 20170317043840</text>
<text text-anchor="start" x="8" y="-93.6" font-family="Times,serif" font-size="13.00">Generated by RailRoady 1.5.2</text>
<text text-anchor="start" x="8" y="-79.6" font-family="Times,serif" font-size="13.00">http://railroady.prestonlee.com</text>
</g>
<!-- Institution -->
<g id="node2" class="node"><title>Institution</title>
<ellipse fill="none" stroke="black" cx="263" cy="-111" rx="49.2915" ry="18"/>
<text text-anchor="middle" x="263" y="-107.3" font-family="Times,serif" font-size="14.00">Institution</text>
</g>
<!-- Orgpolicy -->
<g id="node3" class="node"><title>Orgpolicy</title>
<ellipse fill="none" stroke="black" cx="110" cy="-18" rx="46.2923" ry="18"/>
<text text-anchor="middle" x="110" y="-14.3" font-family="Times,serif" font-size="14.00">Orgpolicy</text>
</g>
<!-- Institution&#45;&gt;Orgpolicy -->
<g id="edge3" class="edge"><title>Institution&#45;&gt;Orgpolicy</title>
<path fill="none" stroke="#89de94" d="M233.882,-90.3438C224.726,-84.3193 214.519,-77.7635 205,-72 185.464,-60.1715 163.188,-47.6923 145.119,-37.8162"/>
<ellipse fill="none" stroke="#89de94" cx="237.316" cy="-92.617" rx="4.00002" ry="4.00002"/>
<polygon fill="#89de94" stroke="#89de94" points="144.875,-37.6837 138.24,-28.9529 140.483,-35.295 136.09,-32.9062 136.09,-32.9062 136.09,-32.9062 140.483,-35.295 133.941,-36.8594 144.875,-37.6837 144.875,-37.6837"/>
</g>
<!-- Orgssid -->
<g id="node4" class="node"><title>Orgssid</title>
<ellipse fill="none" stroke="black" cx="212" cy="-18" rx="38.1938" ry="18"/>
<text text-anchor="middle" x="212" y="-14.3" font-family="Times,serif" font-size="14.00">Orgssid</text>
</g>
<!-- Institution&#45;&gt;Orgssid -->
<g id="edge4" class="edge"><title>Institution&#45;&gt;Orgssid</title>
<path fill="none" stroke="#ce35f8" d="M249.508,-85.9252C242.348,-73.1501 233.552,-57.4549 226.277,-44.4755"/>
<ellipse fill="none" stroke="#ce35f8" cx="251.69" cy="-89.8198" rx="4.00002" ry="4.00002"/>
<polygon fill="#ce35f8" stroke="#ce35f8" points="226.184,-44.3084 225.22,-33.3849 223.739,-39.9467 221.295,-35.585 221.295,-35.585 221.295,-35.585 223.739,-39.9467 217.369,-37.785 226.184,-44.3084 226.184,-44.3084"/>
</g>
<!-- Orgname -->
<g id="node5" class="node"><title>Orgname</title>
<ellipse fill="none" stroke="black" cx="313" cy="-18" rx="44.6926" ry="18"/>
<text text-anchor="middle" x="313" y="-14.3" font-family="Times,serif" font-size="14.00">Orgname</text>
</g>
<!-- Institution&#45;&gt;Orgname -->
<g id="edge1" class="edge"><title>Institution&#45;&gt;Orgname</title>
<path fill="none" stroke="#2e5a55" d="M276.201,-85.9739C283.172,-73.2861 291.732,-57.7074 298.841,-44.7688"/>
<ellipse fill="none" stroke="#2e5a55" cx="274.097" cy="-89.8035" rx="4.00002" ry="4.00002"/>
<polygon fill="#2e5a55" stroke="#2e5a55" points="298.903,-44.6574 307.662,-38.0602 301.31,-40.2753 303.718,-35.8932 303.718,-35.8932 303.718,-35.8932 301.31,-40.2753 299.774,-33.7262 298.903,-44.6574 298.903,-44.6574"/>
</g>
<!-- Orginfo -->
<g id="node6" class="node"><title>Orginfo</title>
<ellipse fill="none" stroke="black" cx="415" cy="-18" rx="39.7935" ry="18"/>
<text text-anchor="middle" x="415" y="-14.3" font-family="Times,serif" font-size="14.00">Orginfo</text>
</g>
<!-- Institution&#45;&gt;Orginfo -->
<g id="edge2" class="edge"><title>Institution&#45;&gt;Orginfo</title>
<path fill="none" stroke="#745d64" d="M294.821,-90.9495C320.721,-75.4435 357.107,-53.6594 383.044,-38.1317"/>
<ellipse fill="none" stroke="#745d64" cx="291.192" cy="-93.1221" rx="4.00002" ry="4.00002"/>
<polygon fill="#745d64" stroke="#745d64" points="383.168,-38.0575 394.059,-36.7817 387.458,-35.4891 391.748,-32.9208 391.748,-32.9208 391.748,-32.9208 387.458,-35.4891 389.436,-29.0598 383.168,-38.0575 383.168,-38.0575"/>
</g>
</g>
</svg>
