<?xml version="1.0" encoding="UTF-8" standalone="no"?>
<!DOCTYPE svg PUBLIC "-//W3C//DTD SVG 1.1//EN"
 "http://www.w3.org/Graphics/SVG/1.1/DTD/svg11.dtd">
<!-- Generated by graphviz version 2.38.0 (20140413.2041)
 -->
<!-- Title: models_diagram Pages: 1 -->
<svg width="610pt" height="498pt"
 viewBox="0.00 0.00 610.00 498.00" xmlns="http://www.w3.org/2000/svg" xmlns:xlink="http://www.w3.org/1999/xlink">
<g id="graph0" class="graph" transform="scale(1 1) rotate(0) translate(4 494)">
<title>models_diagram</title>
<polygon fill="none" stroke="none" points="-4,4 -4,-494 606,-494 606,4 -4,4"/>
<!-- _diagram_info -->
<g id="node1" class="node"><title>_diagram_info</title>
<text text-anchor="start" x="20.5" y="-401.1" font-family="Times,serif" font-size="13.00">Models diagram</text>
<text text-anchor="start" x="20.5" y="-387.1" font-family="Times,serif" font-size="13.00">Date: Mar 17 2017 &#45; 06:49</text>
<text text-anchor="start" x="20.5" y="-373.1" font-family="Times,serif" font-size="13.00">Migration version: 20170317043840</text>
<text text-anchor="start" x="20.5" y="-359.1" font-family="Times,serif" font-size="13.00">Generated by RailRoady 1.5.2</text>
<text text-anchor="start" x="20.5" y="-345.1" font-family="Times,serif" font-size="13.00">http://railroady.prestonlee.com</text>
</g>
<!-- Institution -->
<g id="node2" class="node"><title>Institution</title>
<path fill="none" stroke="black" d="M238.5,-263.5C238.5,-263.5 364.5,-263.5 364.5,-263.5 370.5,-263.5 376.5,-269.5 376.5,-275.5 376.5,-275.5 376.5,-477.5 376.5,-477.5 376.5,-483.5 370.5,-489.5 364.5,-489.5 364.5,-489.5 238.5,-489.5 238.5,-489.5 232.5,-489.5 226.5,-483.5 226.5,-477.5 226.5,-477.5 226.5,-275.5 226.5,-275.5 226.5,-269.5 232.5,-263.5 238.5,-263.5"/>
<text text-anchor="middle" x="301.5" y="-474.3" font-family="Times,serif" font-size="14.00">Institution</text>
<polyline fill="none" stroke="black" points="226.5,-466.5 376.5,-466.5 "/>
<text text-anchor="start" x="234.5" y="-451.3" font-family="Times,serif" font-size="14.00">pw_hash :varchar</text>
<text text-anchor="start" x="234.5" y="-436.3" font-family="Times,serif" font-size="14.00">country :varchar</text>
<text text-anchor="start" x="234.5" y="-421.3" font-family="Times,serif" font-size="14.00">institution_type :integer</text>
<text text-anchor="start" x="234.5" y="-406.3" font-family="Times,serif" font-size="14.00">inst_realm :varchar</text>
<text text-anchor="start" x="234.5" y="-391.3" font-family="Times,serif" font-size="14.00">address :varchar</text>
<text text-anchor="start" x="234.5" y="-376.3" font-family="Times,serif" font-size="14.00">city :varchar</text>
<text text-anchor="start" x="234.5" y="-361.3" font-family="Times,serif" font-size="14.00">contact_name :varchar</text>
<text text-anchor="start" x="234.5" y="-346.3" font-family="Times,serif" font-size="14.00">contact_email :varchar</text>
<text text-anchor="start" x="234.5" y="-331.3" font-family="Times,serif" font-size="14.00">contact_phone :varchar</text>
<text text-anchor="start" x="234.5" y="-316.3" font-family="Times,serif" font-size="14.00">created_at :datetime</text>
<text text-anchor="start" x="234.5" y="-301.3" font-family="Times,serif" font-size="14.00">updated_at :datetime</text>
<text text-anchor="start" x="234.5" y="-286.3" font-family="Times,serif" font-size="14.00">apikey :varchar</text>
<text text-anchor="start" x="234.5" y="-271.3" font-family="Times,serif" font-size="14.00">id :INTEGER</text>
</g>
<!-- Orgpolicy -->
<g id="node3" class="node"><title>Orgpolicy</title>
<path fill="none" stroke="black" d="M12,-53C12,-53 125,-53 125,-53 131,-53 137,-59 137,-65 137,-65 137,-162 137,-162 137,-168 131,-174 125,-174 125,-174 12,-174 12,-174 6,-174 0,-168 0,-162 0,-162 0,-65 0,-65 0,-59 6,-53 12,-53"/>
<text text-anchor="middle" x="68.5" y="-158.8" font-family="Times,serif" font-size="14.00">Orgpolicy</text>
<polyline fill="none" stroke="black" points="0,-151 137,-151 "/>
<text text-anchor="start" x="8" y="-135.8" font-family="Times,serif" font-size="14.00">id :INTEGER</text>
<text text-anchor="start" x="8" y="-120.8" font-family="Times,serif" font-size="14.00">lang :varchar</text>
<text text-anchor="start" x="8" y="-105.8" font-family="Times,serif" font-size="14.00">url :varchar</text>
<text text-anchor="start" x="8" y="-90.8" font-family="Times,serif" font-size="14.00">institution_id :integer</text>
<text text-anchor="start" x="8" y="-75.8" font-family="Times,serif" font-size="14.00">created_at :datetime</text>
<text text-anchor="start" x="8" y="-60.8" font-family="Times,serif" font-size="14.00">updated_at :datetime</text>
</g>
<!-- Institution&#45;&gt;Orgpolicy -->
<g id="edge3" class="edge"><title>Institution&#45;&gt;Orgpolicy</title>
<path fill="none" stroke="#cd757a" d="M220.285,-265.39C219.361,-264.581 218.433,-263.785 217.5,-263 190.425,-240.225 173.171,-250.247 146.5,-227 131.93,-214.3 118.745,-198.316 107.536,-182.416"/>
<ellipse fill="none" stroke="#cd757a" cx="223.356" cy="-268.189" rx="4.00002" ry="4.00002"/>
<polygon fill="#cd757a" stroke="#cd757a" points="107.51,-182.377 105.571,-171.584 104.684,-178.252 101.858,-174.127 101.858,-174.127 101.858,-174.127 104.684,-178.252 98.1457,-176.67 107.51,-182.377 107.51,-182.377"/>
</g>
<!-- Orgssid -->
<g id="node4" class="node"><title>Orgssid</title>
<path fill="none" stroke="black" d="M167,-0.5C167,-0.5 280,-0.5 280,-0.5 286,-0.5 292,-6.5 292,-12.5 292,-12.5 292,-214.5 292,-214.5 292,-220.5 286,-226.5 280,-226.5 280,-226.5 167,-226.5 167,-226.5 161,-226.5 155,-220.5 155,-214.5 155,-214.5 155,-12.5 155,-12.5 155,-6.5 161,-0.5 167,-0.5"/>
<text text-anchor="middle" x="223.5" y="-211.3" font-family="Times,serif" font-size="14.00">Orgssid</text>
<polyline fill="none" stroke="black" points="155,-203.5 292,-203.5 "/>
<text text-anchor="start" x="163" y="-188.3" font-family="Times,serif" font-size="14.00">updated_at :datetime</text>
<text text-anchor="start" x="163" y="-173.3" font-family="Times,serif" font-size="14.00">number :integer</text>
<text text-anchor="start" x="163" y="-158.3" font-family="Times,serif" font-size="14.00">wpa_tkip :integer</text>
<text text-anchor="start" x="163" y="-143.3" font-family="Times,serif" font-size="14.00">wpa_aes :integer</text>
<text text-anchor="start" x="163" y="-128.3" font-family="Times,serif" font-size="14.00">wpa2_tkip :integer</text>
<text text-anchor="start" x="163" y="-113.3" font-family="Times,serif" font-size="14.00">wpa2_aes :integer</text>
<text text-anchor="start" x="163" y="-98.3" font-family="Times,serif" font-size="14.00">port_restrict :integer</text>
<text text-anchor="start" x="163" y="-83.3" font-family="Times,serif" font-size="14.00">transp_proxy :integer</text>
<text text-anchor="start" x="163" y="-68.3" font-family="Times,serif" font-size="14.00">ipv6 :integer</text>
<text text-anchor="start" x="163" y="-53.3" font-family="Times,serif" font-size="14.00">nat :integer</text>
<text text-anchor="start" x="163" y="-38.3" font-family="Times,serif" font-size="14.00">institution_id :integer</text>
<text text-anchor="start" x="163" y="-23.3" font-family="Times,serif" font-size="14.00">created_at :datetime</text>
<text text-anchor="start" x="163" y="-8.3" font-family="Times,serif" font-size="14.00">id :INTEGER</text>
</g>
<!-- Institution&#45;&gt;Orgssid -->
<g id="edge4" class="edge"><title>Institution&#45;&gt;Orgssid</title>
<path fill="none" stroke="#0f885e" d="M265.662,-255.579C263.769,-249.246 261.866,-242.879 259.972,-236.539"/>
<ellipse fill="none" stroke="#0f885e" cx="266.823" cy="-259.465" rx="4.00001" ry="4.00001"/>
<polygon fill="#0f885e" stroke="#0f885e" points="259.867,-236.189 261.315,-225.319 258.435,-231.398 257.003,-226.607 257.003,-226.607 257.003,-226.607 258.435,-231.398 252.692,-227.896 259.867,-236.189 259.867,-236.189"/>
</g>
<!-- Orgname -->
<g id="node5" class="node"><title>Orgname</title>
<path fill="none" stroke="black" d="M322,-53C322,-53 435,-53 435,-53 441,-53 447,-59 447,-65 447,-65 447,-162 447,-162 447,-168 441,-174 435,-174 435,-174 322,-174 322,-174 316,-174 310,-168 310,-162 310,-162 310,-65 310,-65 310,-59 316,-53 322,-53"/>
<text text-anchor="middle" x="378.5" y="-158.8" font-family="Times,serif" font-size="14.00">Orgname</text>
<polyline fill="none" stroke="black" points="310,-151 447,-151 "/>
<text text-anchor="start" x="318" y="-135.8" font-family="Times,serif" font-size="14.00">id :INTEGER</text>
<text text-anchor="start" x="318" y="-120.8" font-family="Times,serif" font-size="14.00">lang :varchar</text>
<text text-anchor="start" x="318" y="-105.8" font-family="Times,serif" font-size="14.00">name :varchar</text>
<text text-anchor="start" x="318" y="-90.8" font-family="Times,serif" font-size="14.00">institution_id :integer</text>
<text text-anchor="start" x="318" y="-75.8" font-family="Times,serif" font-size="14.00">created_at :datetime</text>
<text text-anchor="start" x="318" y="-60.8" font-family="Times,serif" font-size="14.00">updated_at :datetime</text>
</g>
<!-- Institution&#45;&gt;Orgname -->
<g id="edge1" class="edge"><title>Institution&#45;&gt;Orgname</title>
<path fill="none" stroke="#232d34" d="M336.942,-255.364C344.158,-230.904 351.519,-205.956 358,-183.985"/>
<ellipse fill="none" stroke="#232d34" cx="335.734" cy="-259.461" rx="4.00001" ry="4.00001"/>
<polygon fill="#232d34" stroke="#232d34" points="358.083,-183.704 365.229,-175.386 359.498,-178.908 360.913,-174.113 360.913,-174.113 360.913,-174.113 359.498,-178.908 356.597,-172.839 358.083,-183.704 358.083,-183.704"/>
</g>
<!-- Orginfo -->
<g id="node6" class="node"><title>Orginfo</title>
<path fill="none" stroke="black" d="M477,-53C477,-53 590,-53 590,-53 596,-53 602,-59 602,-65 602,-65 602,-162 602,-162 602,-168 596,-174 590,-174 590,-174 477,-174 477,-174 471,-174 465,-168 465,-162 465,-162 465,-65 465,-65 465,-59 471,-53 477,-53"/>
<text text-anchor="middle" x="533.5" y="-158.8" font-family="Times,serif" font-size="14.00">Orginfo</text>
<polyline fill="none" stroke="black" points="465,-151 602,-151 "/>
<text text-anchor="start" x="473" y="-135.8" font-family="Times,serif" font-size="14.00">id :INTEGER</text>
<text text-anchor="start" x="473" y="-120.8" font-family="Times,serif" font-size="14.00">lang :varchar</text>
<text text-anchor="start" x="473" y="-105.8" font-family="Times,serif" font-size="14.00">url :varchar</text>
<text text-anchor="start" x="473" y="-90.8" font-family="Times,serif" font-size="14.00">institution_id :integer</text>
<text text-anchor="start" x="473" y="-75.8" font-family="Times,serif" font-size="14.00">created_at :datetime</text>
<text text-anchor="start" x="473" y="-60.8" font-family="Times,serif" font-size="14.00">updated_at :datetime</text>
</g>
<!-- Institution&#45;&gt;Orginfo -->
<g id="edge2" class="edge"><title>Institution&#45;&gt;Orginfo</title>
<path fill="none" stroke="#4f2608" d="M382.694,-303.73C407.47,-280.278 434.07,-253.441 456.5,-227 468.191,-213.218 479.759,-197.649 490.236,-182.585"/>
<ellipse fill="none" stroke="#4f2608" cx="379.686" cy="-306.562" rx="4.00002" ry="4.00002"/>
<polygon fill="#4f2608" stroke="#4f2608" points="490.277,-182.525 499.648,-176.83 493.108,-178.403 495.938,-174.282 495.938,-174.282 495.938,-174.282 493.108,-178.403 492.229,-171.734 490.277,-182.525 490.277,-182.525"/>
</g>
</g>
</svg>
