<?xml version="1.0" encoding="UTF-8" standalone="no"?>
<!DOCTYPE svg PUBLIC "-//W3C//DTD SVG 1.1//EN"
 "http://www.w3.org/Graphics/SVG/1.1/DTD/svg11.dtd">
<!-- Generated by graphviz version 2.40.1 (20161225.0304)
 -->
<!-- Title: models_diagram Pages: 1 -->
<svg width="1128pt" height="904pt"
 viewBox="0.00 0.00 1128.00 904.00" xmlns="http://www.w3.org/2000/svg" xmlns:xlink="http://www.w3.org/1999/xlink">
<g id="graph0" class="graph" transform="scale(1 1) rotate(0) translate(4 900)">
<title>models_diagram</title>
<polygon fill="transparent" stroke="transparent" points="-4,4 -4,-900 1124,-900 1124,4 -4,4"/>
<!-- _diagram_info -->
<g id="node1" class="node">
<title>_diagram_info</title>
<text text-anchor="start" x="8" y="-829.6" font-family="Times,serif" font-size="13.00" fill="#000000">Models diagram</text>
<text text-anchor="start" x="8" y="-815.6" font-family="Times,serif" font-size="13.00" fill="#000000">Date: May 08 2017 &#45; 05:21</text>
<text text-anchor="start" x="8" y="-801.6" font-family="Times,serif" font-size="13.00" fill="#000000">Migration version: 20170417212813</text>
<text text-anchor="start" x="8" y="-787.6" font-family="Times,serif" font-size="13.00" fill="#000000">Generated by RailRoady 1.5.2</text>
<text text-anchor="start" x="8" y="-773.6" font-family="Times,serif" font-size="13.00" fill="#000000">http://railroady.prestonlee.com</text>
</g>
<!-- Location -->
<g id="node2" class="node">
<title>Location</title>
<path fill="none" stroke="#000000" d="M226,-714.5C226,-714.5 448,-714.5 448,-714.5 454,-714.5 460,-720.5 460,-726.5 460,-726.5 460,-883.5 460,-883.5 460,-889.5 454,-895.5 448,-895.5 448,-895.5 226,-895.5 226,-895.5 220,-895.5 214,-889.5 214,-883.5 214,-883.5 214,-726.5 214,-726.5 214,-720.5 220,-714.5 226,-714.5"/>
<text text-anchor="middle" x="337" y="-880.3" font-family="Times,serif" font-size="14.00" fill="#000000">Location</text>
<polyline fill="none" stroke="#000000" points="214,-872.5 460,-872.5 "/>
<text text-anchor="start" x="222" y="-857.3" font-family="Times,serif" font-size="14.00" fill="#000000">identifier :character varying</text>
<text text-anchor="start" x="222" y="-842.3" font-family="Times,serif" font-size="14.00" fill="#000000">address :character varying</text>
<text text-anchor="start" x="222" y="-827.3" font-family="Times,serif" font-size="14.00" fill="#000000">city :character varying</text>
<text text-anchor="start" x="222" y="-812.3" font-family="Times,serif" font-size="14.00" fill="#000000">country :character varying</text>
<text text-anchor="start" x="222" y="-797.3" font-family="Times,serif" font-size="14.00" fill="#000000">longitude :character varying</text>
<text text-anchor="start" x="222" y="-782.3" font-family="Times,serif" font-size="14.00" fill="#000000">latitude :character varying</text>
<text text-anchor="start" x="222" y="-767.3" font-family="Times,serif" font-size="14.00" fill="#000000">created_at :timestamp without time zone</text>
<text text-anchor="start" x="222" y="-752.3" font-family="Times,serif" font-size="14.00" fill="#000000">updated_at :timestamp without time zone</text>
<text text-anchor="start" x="222" y="-737.3" font-family="Times,serif" font-size="14.00" fill="#000000">institution_id :integer</text>
<text text-anchor="start" x="222" y="-722.3" font-family="Times,serif" font-size="14.00" fill="#000000">id :integer</text>
</g>
<!-- Entry -->
<g id="node3" class="node">
<title>Entry</title>
<path fill="none" stroke="#000000" d="M94,-541.5C94,-541.5 316,-541.5 316,-541.5 322,-541.5 328,-547.5 328,-553.5 328,-553.5 328,-665.5 328,-665.5 328,-671.5 322,-677.5 316,-677.5 316,-677.5 94,-677.5 94,-677.5 88,-677.5 82,-671.5 82,-665.5 82,-665.5 82,-553.5 82,-553.5 82,-547.5 88,-541.5 94,-541.5"/>
<text text-anchor="middle" x="205" y="-662.3" font-family="Times,serif" font-size="14.00" fill="#000000">Entry</text>
<polyline fill="none" stroke="#000000" points="82,-654.5 328,-654.5 "/>
<text text-anchor="start" x="90" y="-639.3" font-family="Times,serif" font-size="14.00" fill="#000000">ap_count :integer</text>
<text text-anchor="start" x="90" y="-624.3" font-family="Times,serif" font-size="14.00" fill="#000000">institution_id :integer</text>
<text text-anchor="start" x="90" y="-609.3" font-family="Times,serif" font-size="14.00" fill="#000000">location_id :integer</text>
<text text-anchor="start" x="90" y="-594.3" font-family="Times,serif" font-size="14.00" fill="#000000">id :integer</text>
<text text-anchor="start" x="90" y="-579.3" font-family="Times,serif" font-size="14.00" fill="#000000">created_at :timestamp without time zone</text>
<text text-anchor="start" x="90" y="-564.3" font-family="Times,serif" font-size="14.00" fill="#000000">updated_at :timestamp without time zone</text>
<text text-anchor="start" x="90" y="-549.3" font-family="Times,serif" font-size="14.00" fill="#000000">orgssid_id :integer</text>
</g>
<!-- Location&#45;&gt;Entry -->
<g id="edge1" class="edge">
<title>Location&#45;&gt;Entry</title>
<path fill="none" stroke="#7fb8a2" d="M264.5654,-707.717C259.7285,-700.5564 254.9377,-693.3925 250.2966,-686.3789"/>
<ellipse fill="none" stroke="#7fb8a2" cx="266.8524" cy="-711.0923" rx="4" ry="4"/>
<polygon fill="#7fb8a2" stroke="#7fb8a2" points="250.0065,-685.9383 248.264,-675.1117 247.2562,-681.7626 244.5059,-677.587 244.5059,-677.587 244.5059,-677.587 247.2562,-681.7626 240.7478,-680.0622 250.0065,-685.9383 250.0065,-685.9383"/>
</g>
<!-- LocName -->
<g id="node7" class="node">
<title>LocName</title>
<path fill="none" stroke="#000000" d="M358,-549C358,-549 580,-549 580,-549 586,-549 592,-555 592,-561 592,-561 592,-658 592,-658 592,-664 586,-670 580,-670 580,-670 358,-670 358,-670 352,-670 346,-664 346,-658 346,-658 346,-561 346,-561 346,-555 352,-549 358,-549"/>
<text text-anchor="middle" x="469" y="-654.8" font-family="Times,serif" font-size="14.00" fill="#000000">LocName</text>
<polyline fill="none" stroke="#000000" points="346,-647 592,-647 "/>
<text text-anchor="start" x="354" y="-631.8" font-family="Times,serif" font-size="14.00" fill="#000000">id :integer</text>
<text text-anchor="start" x="354" y="-616.8" font-family="Times,serif" font-size="14.00" fill="#000000">lang :character varying</text>
<text text-anchor="start" x="354" y="-601.8" font-family="Times,serif" font-size="14.00" fill="#000000">name :character varying</text>
<text text-anchor="start" x="354" y="-586.8" font-family="Times,serif" font-size="14.00" fill="#000000">created_at :timestamp without time zone</text>
<text text-anchor="start" x="354" y="-571.8" font-family="Times,serif" font-size="14.00" fill="#000000">updated_at :timestamp without time zone</text>
<text text-anchor="start" x="354" y="-556.8" font-family="Times,serif" font-size="14.00" fill="#000000">location_id :integer</text>
</g>
<!-- Location&#45;&gt;LocName -->
<g id="edge2" class="edge">
<title>Location&#45;&gt;LocName</title>
<path fill="none" stroke="#d7a4dc" d="M402.6815,-707.7217C409.2925,-697.9304 415.9078,-688.1328 422.262,-678.7218"/>
<ellipse fill="none" stroke="#d7a4dc" cx="400.4082" cy="-711.0886" rx="4" ry="4"/>
<polygon fill="#d7a4dc" stroke="#d7a4dc" points="422.4206,-678.4869 431.746,-672.7172 425.2185,-674.343 428.0165,-670.1991 428.0165,-670.1991 428.0165,-670.1991 425.2185,-674.343 424.287,-667.681 422.4206,-678.4869 422.4206,-678.4869"/>
</g>
<!-- Entry&#45;&gt;Location -->
<g id="edge4" class="edge">
<title>Entry&#45;&gt;Location</title>
<path fill="none" stroke="#2b1686" d="M262.2326,-684.5122C267.4808,-692.1188 272.803,-699.9199 278.0653,-707.717"/>
<ellipse fill="none" stroke="#2b1686" cx="259.7146" cy="-680.8756" rx="4" ry="4"/>
<ellipse fill="#2b1686" stroke="#2b1686" cx="280.3312" cy="-711.0849" rx="4" ry="4"/>
</g>
<!-- Institution -->
<g id="node4" class="node">
<title>Institution</title>
<path fill="none" stroke="#000000" d="M358,-293.5C358,-293.5 580,-293.5 580,-293.5 586,-293.5 592,-299.5 592,-305.5 592,-305.5 592,-492.5 592,-492.5 592,-498.5 586,-504.5 580,-504.5 580,-504.5 358,-504.5 358,-504.5 352,-504.5 346,-498.5 346,-492.5 346,-492.5 346,-305.5 346,-305.5 346,-299.5 352,-293.5 358,-293.5"/>
<text text-anchor="middle" x="469" y="-489.3" font-family="Times,serif" font-size="14.00" fill="#000000">Institution</text>
<polyline fill="none" stroke="#000000" points="346,-481.5 592,-481.5 "/>
<text text-anchor="start" x="354" y="-466.3" font-family="Times,serif" font-size="14.00" fill="#000000">apikey :character varying</text>
<text text-anchor="start" x="354" y="-451.3" font-family="Times,serif" font-size="14.00" fill="#000000">country :character varying</text>
<text text-anchor="start" x="354" y="-436.3" font-family="Times,serif" font-size="14.00" fill="#000000">institution_type :integer</text>
<text text-anchor="start" x="354" y="-421.3" font-family="Times,serif" font-size="14.00" fill="#000000">inst_realm :character varying</text>
<text text-anchor="start" x="354" y="-406.3" font-family="Times,serif" font-size="14.00" fill="#000000">address :character varying</text>
<text text-anchor="start" x="354" y="-391.3" font-family="Times,serif" font-size="14.00" fill="#000000">city :character varying</text>
<text text-anchor="start" x="354" y="-376.3" font-family="Times,serif" font-size="14.00" fill="#000000">contact_name :character varying</text>
<text text-anchor="start" x="354" y="-361.3" font-family="Times,serif" font-size="14.00" fill="#000000">contact_email :character varying</text>
<text text-anchor="start" x="354" y="-346.3" font-family="Times,serif" font-size="14.00" fill="#000000">contact_phone :character varying</text>
<text text-anchor="start" x="354" y="-331.3" font-family="Times,serif" font-size="14.00" fill="#000000">created_at :timestamp without time zone</text>
<text text-anchor="start" x="354" y="-316.3" font-family="Times,serif" font-size="14.00" fill="#000000">updated_at :timestamp without time zone</text>
<text text-anchor="start" x="354" y="-301.3" font-family="Times,serif" font-size="14.00" fill="#000000">id :integer</text>
</g>
<!-- Entry&#45;&gt;Institution -->
<g id="edge3" class="edge">
<title>Entry&#45;&gt;Institution</title>
<path fill="none" stroke="#73c710" d="M290.4138,-536.2407C305.9544,-523.6654 322.4794,-510.4169 338.9639,-497.3124"/>
<ellipse fill="none" stroke="#73c710" cx="287.096" cy="-538.9291" rx="4" ry="4"/>
<ellipse fill="#73c710" stroke="#73c710" cx="342.3914" cy="-494.5908" rx="4" ry="4"/>
</g>
<!-- Orgssid -->
<g id="node6" class="node">
<title>Orgssid</title>
<path fill="none" stroke="#000000" d="M94,-.5C94,-.5 316,-.5 316,-.5 322,-.5 328,-6.5 328,-12.5 328,-12.5 328,-244.5 328,-244.5 328,-250.5 322,-256.5 316,-256.5 316,-256.5 94,-256.5 94,-256.5 88,-256.5 82,-250.5 82,-244.5 82,-244.5 82,-12.5 82,-12.5 82,-6.5 88,-.5 94,-.5"/>
<text text-anchor="middle" x="205" y="-241.3" font-family="Times,serif" font-size="14.00" fill="#000000">Orgssid</text>
<polyline fill="none" stroke="#000000" points="82,-233.5 328,-233.5 "/>
<text text-anchor="start" x="90" y="-218.3" font-family="Times,serif" font-size="14.00" fill="#000000">wired :boolean</text>
<text text-anchor="start" x="90" y="-203.3" font-family="Times,serif" font-size="14.00" fill="#000000">number :integer</text>
<text text-anchor="start" x="90" y="-188.3" font-family="Times,serif" font-size="14.00" fill="#000000">institution_id :integer</text>
<text text-anchor="start" x="90" y="-173.3" font-family="Times,serif" font-size="14.00" fill="#000000">created_at :timestamp without time zone</text>
<text text-anchor="start" x="90" y="-158.3" font-family="Times,serif" font-size="14.00" fill="#000000">updated_at :timestamp without time zone</text>
<text text-anchor="start" x="90" y="-143.3" font-family="Times,serif" font-size="14.00" fill="#000000">name :character varying</text>
<text text-anchor="start" x="90" y="-128.3" font-family="Times,serif" font-size="14.00" fill="#000000">port_restrict :boolean</text>
<text text-anchor="start" x="90" y="-113.3" font-family="Times,serif" font-size="14.00" fill="#000000">transp_proxy :boolean</text>
<text text-anchor="start" x="90" y="-98.3" font-family="Times,serif" font-size="14.00" fill="#000000">ipv6 :boolean</text>
<text text-anchor="start" x="90" y="-83.3" font-family="Times,serif" font-size="14.00" fill="#000000">nat :boolean</text>
<text text-anchor="start" x="90" y="-68.3" font-family="Times,serif" font-size="14.00" fill="#000000">wpa_tkip :boolean</text>
<text text-anchor="start" x="90" y="-53.3" font-family="Times,serif" font-size="14.00" fill="#000000">wpa_aes :boolean</text>
<text text-anchor="start" x="90" y="-38.3" font-family="Times,serif" font-size="14.00" fill="#000000">wpa2_tkip :boolean</text>
<text text-anchor="start" x="90" y="-23.3" font-family="Times,serif" font-size="14.00" fill="#000000">wpa2_aes :boolean</text>
<text text-anchor="start" x="90" y="-8.3" font-family="Times,serif" font-size="14.00" fill="#000000">id :integer</text>
</g>
<!-- Entry&#45;&gt;Orgssid -->
<g id="edge5" class="edge">
<title>Entry&#45;&gt;Orgssid</title>
<path fill="none" stroke="#1dd6f2" d="M199.9032,-532.9573C198.1395,-461.0495 197.787,-351.8173 198.8456,-264.9889"/>
<ellipse fill="none" stroke="#1dd6f2" cx="200.0168" cy="-537.3515" rx="4" ry="4"/>
<ellipse fill="#1dd6f2" stroke="#1dd6f2" cx="198.8976" cy="-260.9239" rx="4" ry="4"/>
</g>
<!-- Institution&#45;&gt;Location -->
<g id="edge11" class="edge">
<title>Institution&#45;&gt;Location</title>
<path fill="none" stroke="#bf612c" d="M586.1778,-511.7087C591.9843,-521.1242 597.0373,-530.9167 601,-541 623.2713,-597.6696 633.4056,-626.4507 601,-678 571.6287,-724.7226 519.7273,-754.6539 469.6715,-773.6342"/>
<ellipse fill="none" stroke="#bf612c" cx="583.9819" cy="-508.2871" rx="4" ry="4"/>
<polygon fill="#bf612c" stroke="#bf612c" points="469.4126,-773.729 458.4749,-772.9437 464.7178,-775.449 460.0229,-777.1691 460.0229,-777.1691 460.0229,-777.1691 464.7178,-775.449 461.571,-781.3944 469.4126,-773.729 469.4126,-773.729"/>
</g>
<!-- Institution&#45;&gt;Entry -->
<g id="edge10" class="edge">
<title>Institution&#45;&gt;Entry</title>
<path fill="none" stroke="#07717e" d="M339.1897,-507.8833C327.6717,-517.0528 316.1315,-526.1854 304.9188,-535.0024"/>
<ellipse fill="none" stroke="#07717e" cx="342.4559" cy="-505.2802" rx="4" ry="4"/>
<polygon fill="#07717e" stroke="#07717e" points="304.5748,-535.2724 293.9303,-537.9078 300.642,-538.3599 296.7091,-541.4474 296.7091,-541.4474 296.7091,-541.4474 300.642,-538.3599 299.4878,-544.987 304.5748,-535.2724 304.5748,-535.2724"/>
</g>
<!-- Orgpolicy -->
<g id="node5" class="node">
<title>Orgpolicy</title>
<path fill="none" stroke="#000000" d="M358,-68C358,-68 580,-68 580,-68 586,-68 592,-74 592,-80 592,-80 592,-177 592,-177 592,-183 586,-189 580,-189 580,-189 358,-189 358,-189 352,-189 346,-183 346,-177 346,-177 346,-80 346,-80 346,-74 352,-68 358,-68"/>
<text text-anchor="middle" x="469" y="-173.8" font-family="Times,serif" font-size="14.00" fill="#000000">Orgpolicy</text>
<polyline fill="none" stroke="#000000" points="346,-166 592,-166 "/>
<text text-anchor="start" x="354" y="-150.8" font-family="Times,serif" font-size="14.00" fill="#000000">id :integer</text>
<text text-anchor="start" x="354" y="-135.8" font-family="Times,serif" font-size="14.00" fill="#000000">lang :character varying</text>
<text text-anchor="start" x="354" y="-120.8" font-family="Times,serif" font-size="14.00" fill="#000000">url :character varying</text>
<text text-anchor="start" x="354" y="-105.8" font-family="Times,serif" font-size="14.00" fill="#000000">institution_id :integer</text>
<text text-anchor="start" x="354" y="-90.8" font-family="Times,serif" font-size="14.00" fill="#000000">created_at :timestamp without time zone</text>
<text text-anchor="start" x="354" y="-75.8" font-family="Times,serif" font-size="14.00" fill="#000000">updated_at :timestamp without time zone</text>
</g>
<!-- Institution&#45;&gt;Orgpolicy -->
<g id="edge8" class="edge">
<title>Institution&#45;&gt;Orgpolicy</title>
<path fill="none" stroke="#3d626b" d="M469,-284.9432C469,-255.9349 469,-225.5928 469,-199.4345"/>
<ellipse fill="none" stroke="#3d626b" cx="469" cy="-289.2555" rx="4" ry="4"/>
<polygon fill="#3d626b" stroke="#3d626b" points="469.0001,-199.2516 473.5,-189.2515 469,-194.2516 469,-189.2516 469,-189.2516 469,-189.2516 469,-194.2516 464.5,-189.2516 469.0001,-199.2516 469.0001,-199.2516"/>
</g>
<!-- Institution&#45;&gt;Orgssid -->
<g id="edge9" class="edge">
<title>Institution&#45;&gt;Orgssid</title>
<path fill="none" stroke="#1740a7" d="M360.0104,-287.327C351.9243,-279.0418 343.7193,-270.6347 335.5219,-262.2355"/>
<ellipse fill="none" stroke="#1740a7" cx="363.0026" cy="-290.3928" rx="4" ry="4"/>
<polygon fill="#1740a7" stroke="#1740a7" points="335.3079,-262.0162 331.5437,-251.7166 331.8156,-258.4379 328.3233,-254.8596 328.3233,-254.8596 328.3233,-254.8596 331.8156,-258.4379 325.1028,-258.0027 335.3079,-262.0162 335.3079,-262.0162"/>
</g>
<!-- Orgname -->
<g id="node8" class="node">
<title>Orgname</title>
<path fill="none" stroke="#000000" d="M622,-68C622,-68 844,-68 844,-68 850,-68 856,-74 856,-80 856,-80 856,-177 856,-177 856,-183 850,-189 844,-189 844,-189 622,-189 622,-189 616,-189 610,-183 610,-177 610,-177 610,-80 610,-80 610,-74 616,-68 622,-68"/>
<text text-anchor="middle" x="733" y="-173.8" font-family="Times,serif" font-size="14.00" fill="#000000">Orgname</text>
<polyline fill="none" stroke="#000000" points="610,-166 856,-166 "/>
<text text-anchor="start" x="618" y="-150.8" font-family="Times,serif" font-size="14.00" fill="#000000">id :integer</text>
<text text-anchor="start" x="618" y="-135.8" font-family="Times,serif" font-size="14.00" fill="#000000">lang :character varying</text>
<text text-anchor="start" x="618" y="-120.8" font-family="Times,serif" font-size="14.00" fill="#000000">name :character varying</text>
<text text-anchor="start" x="618" y="-105.8" font-family="Times,serif" font-size="14.00" fill="#000000">institution_id :integer</text>
<text text-anchor="start" x="618" y="-90.8" font-family="Times,serif" font-size="14.00" fill="#000000">created_at :timestamp without time zone</text>
<text text-anchor="start" x="618" y="-75.8" font-family="Times,serif" font-size="14.00" fill="#000000">updated_at :timestamp without time zone</text>
</g>
<!-- Institution&#45;&gt;Orgname -->
<g id="edge6" class="edge">
<title>Institution&#45;&gt;Orgname</title>
<path fill="none" stroke="#e2c6e3" d="M577.8734,-287.446C607.9758,-256.6024 639.7346,-224.0618 666.6216,-196.5127"/>
<ellipse fill="none" stroke="#e2c6e3" cx="574.9974" cy="-290.3928" rx="4" ry="4"/>
<polygon fill="#e2c6e3" stroke="#e2c6e3" points="666.7237,-196.4081 676.9287,-192.3946 670.216,-192.8298 673.7083,-189.2516 673.7083,-189.2516 673.7083,-189.2516 670.216,-192.8298 670.4878,-186.1085 666.7237,-196.4081 666.7237,-196.4081"/>
</g>
<!-- Orginfo -->
<g id="node9" class="node">
<title>Orginfo</title>
<path fill="none" stroke="#000000" d="M886,-68C886,-68 1108,-68 1108,-68 1114,-68 1120,-74 1120,-80 1120,-80 1120,-177 1120,-177 1120,-183 1114,-189 1108,-189 1108,-189 886,-189 886,-189 880,-189 874,-183 874,-177 874,-177 874,-80 874,-80 874,-74 880,-68 886,-68"/>
<text text-anchor="middle" x="997" y="-173.8" font-family="Times,serif" font-size="14.00" fill="#000000">Orginfo</text>
<polyline fill="none" stroke="#000000" points="874,-166 1120,-166 "/>
<text text-anchor="start" x="882" y="-150.8" font-family="Times,serif" font-size="14.00" fill="#000000">id :integer</text>
<text text-anchor="start" x="882" y="-135.8" font-family="Times,serif" font-size="14.00" fill="#000000">lang :character varying</text>
<text text-anchor="start" x="882" y="-120.8" font-family="Times,serif" font-size="14.00" fill="#000000">url :character varying</text>
<text text-anchor="start" x="882" y="-105.8" font-family="Times,serif" font-size="14.00" fill="#000000">institution_id :integer</text>
<text text-anchor="start" x="882" y="-90.8" font-family="Times,serif" font-size="14.00" fill="#000000">created_at :timestamp without time zone</text>
<text text-anchor="start" x="882" y="-75.8" font-family="Times,serif" font-size="14.00" fill="#000000">updated_at :timestamp without time zone</text>
</g>
<!-- Institution&#45;&gt;Orginfo -->
<g id="edge7" class="edge">
<title>Institution&#45;&gt;Orginfo</title>
<path fill="none" stroke="#70b960" d="M599.7342,-367.3873C680.1288,-344.3443 783.0771,-308.1487 865,-257 891.4453,-240.4888 916.8902,-217.92 938.2621,-196.301"/>
<ellipse fill="none" stroke="#70b960" cx="595.8738" cy="-368.4835" rx="4" ry="4"/>
<polygon fill="#70b960" stroke="#70b960" points="938.3763,-196.1836 948.5749,-192.1537 941.8628,-192.5997 945.3494,-189.0158 945.3494,-189.0158 945.3494,-189.0158 941.8628,-192.5997 942.1239,-185.8779 938.3763,-196.1836 938.3763,-196.1836"/>
</g>
<!-- Orgssid&#45;&gt;Entry -->
<g id="edge12" class="edge">
<title>Orgssid&#45;&gt;Entry</title>
<path fill="none" stroke="#a2ab8c" d="M211.1567,-265.1832C212.2036,-351.2534 211.865,-459.2772 210.1408,-531.1446"/>
<ellipse fill="none" stroke="#a2ab8c" cx="211.1023" cy="-260.9239" rx="4" ry="4"/>
<polygon fill="#a2ab8c" stroke="#a2ab8c" points="210.1355,-531.3534 205.3813,-541.2351 210.0077,-536.3517 209.8798,-541.3501 209.8798,-541.3501 209.8798,-541.3501 210.0077,-536.3517 214.3784,-541.4652 210.1355,-531.3534 210.1355,-531.3534"/>
</g>
</g>
</svg>
