<?xml version="1.0" encoding="UTF-8" standalone="no"?>
<!DOCTYPE svg PUBLIC "-//W3C//DTD SVG 1.1//EN"
 "http://www.w3.org/Graphics/SVG/1.1/DTD/svg11.dtd">
<!-- Generated by graphviz version 2.38.0 (20140413.2041)
 -->
<!-- Title: models_diagram Pages: 1 -->
<svg width="860pt" height="656pt"
 viewBox="0.00 0.00 860.50 656.00" xmlns="http://www.w3.org/2000/svg" xmlns:xlink="http://www.w3.org/1999/xlink">
<g id="graph0" class="graph" transform="scale(1 1) rotate(0) translate(4 652)">
<title>models_diagram</title>
<polygon fill="none" stroke="none" points="-4,4 -4,-652 856.5,-652 856.5,4 -4,4"/>
<!-- _diagram_info -->
<g id="node1" class="node"><title>_diagram_info</title>
<text text-anchor="start" x="8" y="-566.6" font-family="Times,serif" font-size="13.00">Models diagram</text>
<text text-anchor="start" x="8" y="-552.6" font-family="Times,serif" font-size="13.00">Date: Mar 31 2017 &#45; 15:32</text>
<text text-anchor="start" x="8" y="-538.6" font-family="Times,serif" font-size="13.00">Migration version: 20170331122823</text>
<text text-anchor="start" x="8" y="-524.6" font-family="Times,serif" font-size="13.00">Generated by RailRoady 1.5.2</text>
<text text-anchor="start" x="8" y="-510.6" font-family="Times,serif" font-size="13.00">http://railroady.prestonlee.com</text>
</g>
<!-- Location -->
<g id="node2" class="node"><title>Location</title>
<path fill="none" stroke="black" d="M226,-459C226,-459 334,-459 334,-459 340,-459 346,-465 346,-471 346,-471 346,-613 346,-613 346,-619 340,-625 334,-625 334,-625 226,-625 226,-625 220,-625 214,-619 214,-613 214,-613 214,-471 214,-471 214,-465 220,-459 226,-459"/>
<text text-anchor="middle" x="280" y="-609.8" font-family="Times,serif" font-size="14.00">Location</text>
<polyline fill="none" stroke="black" points="214,-602 346,-602 "/>
<text text-anchor="start" x="222" y="-586.8" font-family="Times,serif" font-size="14.00">updated_at :datetime</text>
<text text-anchor="start" x="222" y="-571.8" font-family="Times,serif" font-size="14.00">address :varchar</text>
<text text-anchor="start" x="222" y="-556.8" font-family="Times,serif" font-size="14.00">street_nr :integer</text>
<text text-anchor="start" x="222" y="-541.8" font-family="Times,serif" font-size="14.00">city :varchar</text>
<text text-anchor="start" x="222" y="-526.8" font-family="Times,serif" font-size="14.00">country :varchar</text>
<text text-anchor="start" x="222" y="-511.8" font-family="Times,serif" font-size="14.00">longitude :varchar</text>
<text text-anchor="start" x="222" y="-496.8" font-family="Times,serif" font-size="14.00">latitude :varchar</text>
<text text-anchor="start" x="222" y="-481.8" font-family="Times,serif" font-size="14.00">created_at :datetime</text>
<text text-anchor="start" x="222" y="-466.8" font-family="Times,serif" font-size="14.00">id :INTEGER</text>
</g>
<!-- Entry -->
<g id="node3" class="node"><title>Entry</title>
<path fill="none" stroke="black" d="M223.5,-263.5C223.5,-263.5 336.5,-263.5 336.5,-263.5 342.5,-263.5 348.5,-269.5 348.5,-275.5 348.5,-275.5 348.5,-387.5 348.5,-387.5 348.5,-393.5 342.5,-399.5 336.5,-399.5 336.5,-399.5 223.5,-399.5 223.5,-399.5 217.5,-399.5 211.5,-393.5 211.5,-387.5 211.5,-387.5 211.5,-275.5 211.5,-275.5 211.5,-269.5 217.5,-263.5 223.5,-263.5"/>
<text text-anchor="middle" x="280" y="-384.3" font-family="Times,serif" font-size="14.00">Entry</text>
<polyline fill="none" stroke="black" points="211.5,-376.5 348.5,-376.5 "/>
<text text-anchor="start" x="219.5" y="-361.3" font-family="Times,serif" font-size="14.00">ap_count :integer</text>
<text text-anchor="start" x="219.5" y="-346.3" font-family="Times,serif" font-size="14.00">institution_id :integer</text>
<text text-anchor="start" x="219.5" y="-331.3" font-family="Times,serif" font-size="14.00">location_id :integer</text>
<text text-anchor="start" x="219.5" y="-316.3" font-family="Times,serif" font-size="14.00">id :INTEGER</text>
<text text-anchor="start" x="219.5" y="-301.3" font-family="Times,serif" font-size="14.00">created_at :datetime</text>
<text text-anchor="start" x="219.5" y="-286.3" font-family="Times,serif" font-size="14.00">updated_at :datetime</text>
<text text-anchor="start" x="219.5" y="-271.3" font-family="Times,serif" font-size="14.00">orgssid_id :integer</text>
</g>
<!-- Location&#45;&gt;Entry -->
<g id="edge1" class="edge"><title>Location&#45;&gt;Entry</title>
<path fill="none" stroke="#20dbc9" d="M273.303,-450.569C273.198,-436.975 273.249,-423.062 273.455,-409.777"/>
<ellipse fill="none" stroke="#20dbc9" cx="273.347" cy="-454.895" rx="4" ry="4"/>
<polygon fill="#20dbc9" stroke="#20dbc9" points="273.455,-409.754 278.142,-399.84 273.549,-404.755 273.643,-399.755 273.643,-399.755 273.643,-399.755 273.549,-404.755 269.144,-399.671 273.455,-409.754 273.455,-409.754"/>
</g>
<!-- Entry&#45;&gt;Location -->
<g id="edge2" class="edge"><title>Entry&#45;&gt;Location</title>
<path fill="none" stroke="#cd72f1" d="M286.514,-407.828C286.746,-421.697 286.807,-436.309 286.697,-450.569"/>
<ellipse fill="none" stroke="#cd72f1" cx="286.435" cy="-403.755" rx="4" ry="4"/>
<ellipse fill="#cd72f1" stroke="#cd72f1" cx="286.653" cy="-454.895" rx="4" ry="4"/>
</g>
<!-- Orgssid -->
<g id="node6" class="node"><title>Orgssid</title>
<path fill="none" stroke="black" d="M300.5,-0.5C300.5,-0.5 413.5,-0.5 413.5,-0.5 419.5,-0.5 425.5,-6.5 425.5,-12.5 425.5,-12.5 425.5,-214.5 425.5,-214.5 425.5,-220.5 419.5,-226.5 413.5,-226.5 413.5,-226.5 300.5,-226.5 300.5,-226.5 294.5,-226.5 288.5,-220.5 288.5,-214.5 288.5,-214.5 288.5,-12.5 288.5,-12.5 288.5,-6.5 294.5,-0.5 300.5,-0.5"/>
<text text-anchor="middle" x="357" y="-211.3" font-family="Times,serif" font-size="14.00">Orgssid</text>
<polyline fill="none" stroke="black" points="288.5,-203.5 425.5,-203.5 "/>
<text text-anchor="start" x="296.5" y="-188.3" font-family="Times,serif" font-size="14.00">updated_at :datetime</text>
<text text-anchor="start" x="296.5" y="-173.3" font-family="Times,serif" font-size="14.00">number :integer</text>
<text text-anchor="start" x="296.5" y="-158.3" font-family="Times,serif" font-size="14.00">wpa_tkip :integer</text>
<text text-anchor="start" x="296.5" y="-143.3" font-family="Times,serif" font-size="14.00">wpa_aes :integer</text>
<text text-anchor="start" x="296.5" y="-128.3" font-family="Times,serif" font-size="14.00">wpa2_tkip :integer</text>
<text text-anchor="start" x="296.5" y="-113.3" font-family="Times,serif" font-size="14.00">wpa2_aes :integer</text>
<text text-anchor="start" x="296.5" y="-98.3" font-family="Times,serif" font-size="14.00">port_restrict :integer</text>
<text text-anchor="start" x="296.5" y="-83.3" font-family="Times,serif" font-size="14.00">transp_proxy :integer</text>
<text text-anchor="start" x="296.5" y="-68.3" font-family="Times,serif" font-size="14.00">ipv6 :integer</text>
<text text-anchor="start" x="296.5" y="-53.3" font-family="Times,serif" font-size="14.00">nat :integer</text>
<text text-anchor="start" x="296.5" y="-38.3" font-family="Times,serif" font-size="14.00">institution_id :integer</text>
<text text-anchor="start" x="296.5" y="-23.3" font-family="Times,serif" font-size="14.00">created_at :datetime</text>
<text text-anchor="start" x="296.5" y="-8.3" font-family="Times,serif" font-size="14.00">id :INTEGER</text>
</g>
<!-- Entry&#45;&gt;Orgssid -->
<g id="edge4" class="edge"><title>Entry&#45;&gt;Orgssid</title>
<path fill="none" stroke="#175d8e" d="M300.24,-255.601C302.557,-248.754 304.984,-241.711 307.476,-234.596"/>
<ellipse fill="none" stroke="#175d8e" cx="298.914" cy="-259.549" rx="4.00001" ry="4.00001"/>
<ellipse fill="#175d8e" stroke="#175d8e" cx="308.874" cy="-230.627" rx="4.00001" ry="4.00001"/>
</g>
<!-- LocName -->
<g id="node7" class="node"><title>LocName</title>
<path fill="none" stroke="black" d="M150,-53C150,-53 258,-53 258,-53 264,-53 270,-59 270,-65 270,-65 270,-162 270,-162 270,-168 264,-174 258,-174 258,-174 150,-174 150,-174 144,-174 138,-168 138,-162 138,-162 138,-65 138,-65 138,-59 144,-53 150,-53"/>
<text text-anchor="middle" x="204" y="-158.8" font-family="Times,serif" font-size="14.00">LocName</text>
<polyline fill="none" stroke="black" points="138,-151 270,-151 "/>
<text text-anchor="start" x="146" y="-135.8" font-family="Times,serif" font-size="14.00">id :INTEGER</text>
<text text-anchor="start" x="146" y="-120.8" font-family="Times,serif" font-size="14.00">lang :varchar</text>
<text text-anchor="start" x="146" y="-105.8" font-family="Times,serif" font-size="14.00">name :varchar</text>
<text text-anchor="start" x="146" y="-90.8" font-family="Times,serif" font-size="14.00">entry_id :integer</text>
<text text-anchor="start" x="146" y="-75.8" font-family="Times,serif" font-size="14.00">created_at :datetime</text>
<text text-anchor="start" x="146" y="-60.8" font-family="Times,serif" font-size="14.00">updated_at :datetime</text>
</g>
<!-- Entry&#45;&gt;LocName -->
<g id="edge3" class="edge"><title>Entry&#45;&gt;LocName</title>
<path fill="none" stroke="#73e292" d="M253.633,-255.562C245.45,-232.305 236.47,-206.784 228.425,-183.918"/>
<ellipse fill="none" stroke="#73e292" cx="255.042" cy="-259.567" rx="4.00001" ry="4.00001"/>
<polygon fill="#73e292" stroke="#73e292" points="228.359,-183.729 229.284,-172.803 226.699,-179.013 225.039,-174.296 225.039,-174.296 225.039,-174.296 226.699,-179.013 220.794,-175.79 228.359,-183.729 228.359,-183.729"/>
</g>
<!-- Institution -->
<g id="node4" class="node"><title>Institution</title>
<path fill="none" stroke="black" d="M469,-436.5C469,-436.5 595,-436.5 595,-436.5 601,-436.5 607,-442.5 607,-448.5 607,-448.5 607,-635.5 607,-635.5 607,-641.5 601,-647.5 595,-647.5 595,-647.5 469,-647.5 469,-647.5 463,-647.5 457,-641.5 457,-635.5 457,-635.5 457,-448.5 457,-448.5 457,-442.5 463,-436.5 469,-436.5"/>
<text text-anchor="middle" x="532" y="-632.3" font-family="Times,serif" font-size="14.00">Institution</text>
<polyline fill="none" stroke="black" points="457,-624.5 607,-624.5 "/>
<text text-anchor="start" x="465" y="-609.3" font-family="Times,serif" font-size="14.00">apikey :varchar</text>
<text text-anchor="start" x="465" y="-594.3" font-family="Times,serif" font-size="14.00">country :varchar</text>
<text text-anchor="start" x="465" y="-579.3" font-family="Times,serif" font-size="14.00">institution_type :integer</text>
<text text-anchor="start" x="465" y="-564.3" font-family="Times,serif" font-size="14.00">inst_realm :varchar</text>
<text text-anchor="start" x="465" y="-549.3" font-family="Times,serif" font-size="14.00">address :varchar</text>
<text text-anchor="start" x="465" y="-534.3" font-family="Times,serif" font-size="14.00">city :varchar</text>
<text text-anchor="start" x="465" y="-519.3" font-family="Times,serif" font-size="14.00">contact_name :varchar</text>
<text text-anchor="start" x="465" y="-504.3" font-family="Times,serif" font-size="14.00">contact_email :varchar</text>
<text text-anchor="start" x="465" y="-489.3" font-family="Times,serif" font-size="14.00">contact_phone :varchar</text>
<text text-anchor="start" x="465" y="-474.3" font-family="Times,serif" font-size="14.00">created_at :datetime</text>
<text text-anchor="start" x="465" y="-459.3" font-family="Times,serif" font-size="14.00">updated_at :datetime</text>
<text text-anchor="start" x="465" y="-444.3" font-family="Times,serif" font-size="14.00">id :INTEGER</text>
</g>
<!-- Institution&#45;&gt;Entry -->
<g id="edge9" class="edge"><title>Institution&#45;&gt;Entry</title>
<path fill="none" stroke="#e9649b" d="M450.064,-475.505C420.841,-451.909 387.791,-424.95 358,-400 357.528,-399.605 357.055,-399.208 356.58,-398.81"/>
<ellipse fill="none" stroke="#e9649b" cx="453.513" cy="-478.288" rx="4.00002" ry="4.00002"/>
<polygon fill="#e9649b" stroke="#e9649b" points="356.445,-398.696 351.701,-388.809 352.623,-395.473 348.8,-392.25 348.8,-392.25 348.8,-392.25 352.623,-395.473 345.899,-395.69 356.445,-398.696 356.445,-398.696"/>
</g>
<!-- Orgpolicy -->
<g id="node5" class="node"><title>Orgpolicy</title>
<path fill="none" stroke="black" d="M378.5,-271C378.5,-271 491.5,-271 491.5,-271 497.5,-271 503.5,-277 503.5,-283 503.5,-283 503.5,-380 503.5,-380 503.5,-386 497.5,-392 491.5,-392 491.5,-392 378.5,-392 378.5,-392 372.5,-392 366.5,-386 366.5,-380 366.5,-380 366.5,-283 366.5,-283 366.5,-277 372.5,-271 378.5,-271"/>
<text text-anchor="middle" x="435" y="-376.8" font-family="Times,serif" font-size="14.00">Orgpolicy</text>
<polyline fill="none" stroke="black" points="366.5,-369 503.5,-369 "/>
<text text-anchor="start" x="374.5" y="-353.8" font-family="Times,serif" font-size="14.00">id :INTEGER</text>
<text text-anchor="start" x="374.5" y="-338.8" font-family="Times,serif" font-size="14.00">lang :varchar</text>
<text text-anchor="start" x="374.5" y="-323.8" font-family="Times,serif" font-size="14.00">url :varchar</text>
<text text-anchor="start" x="374.5" y="-308.8" font-family="Times,serif" font-size="14.00">institution_id :integer</text>
<text text-anchor="start" x="374.5" y="-293.8" font-family="Times,serif" font-size="14.00">created_at :datetime</text>
<text text-anchor="start" x="374.5" y="-278.8" font-family="Times,serif" font-size="14.00">updated_at :datetime</text>
</g>
<!-- Institution&#45;&gt;Orgpolicy -->
<g id="edge7" class="edge"><title>Institution&#45;&gt;Orgpolicy</title>
<path fill="none" stroke="#11b95f" d="M479.871,-428.95C475.483,-419.517 471.134,-410.17 466.971,-401.22"/>
<ellipse fill="none" stroke="#11b95f" cx="481.671" cy="-432.818" rx="4.00002" ry="4.00002"/>
<polygon fill="#11b95f" stroke="#11b95f" points="466.923,-401.117 466.785,-390.152 464.814,-396.584 462.705,-392.05 462.705,-392.05 462.705,-392.05 464.814,-396.584 458.624,-393.949 466.923,-401.117 466.923,-401.117"/>
</g>
<!-- Institution&#45;&gt;Orgssid -->
<g id="edge8" class="edge"><title>Institution&#45;&gt;Orgssid</title>
<path fill="none" stroke="#cf40b3" d="M542.571,-428.463C543.026,-375.933 536.916,-313.915 513,-263 495.415,-225.563 463.901,-192.753 433.778,-167.561"/>
<ellipse fill="none" stroke="#cf40b3" cx="542.511" cy="-432.475" rx="4" ry="4"/>
<polygon fill="#cf40b3" stroke="#cf40b3" points="433.488,-167.323 428.596,-157.509 429.618,-164.158 425.747,-160.992 425.747,-160.992 425.747,-160.992 429.618,-164.158 422.898,-164.475 433.488,-167.323 433.488,-167.323"/>
</g>
<!-- Orgname -->
<g id="node8" class="node"><title>Orgname</title>
<path fill="none" stroke="black" d="M572.5,-271C572.5,-271 685.5,-271 685.5,-271 691.5,-271 697.5,-277 697.5,-283 697.5,-283 697.5,-380 697.5,-380 697.5,-386 691.5,-392 685.5,-392 685.5,-392 572.5,-392 572.5,-392 566.5,-392 560.5,-386 560.5,-380 560.5,-380 560.5,-283 560.5,-283 560.5,-277 566.5,-271 572.5,-271"/>
<text text-anchor="middle" x="629" y="-376.8" font-family="Times,serif" font-size="14.00">Orgname</text>
<polyline fill="none" stroke="black" points="560.5,-369 697.5,-369 "/>
<text text-anchor="start" x="568.5" y="-353.8" font-family="Times,serif" font-size="14.00">id :INTEGER</text>
<text text-anchor="start" x="568.5" y="-338.8" font-family="Times,serif" font-size="14.00">lang :varchar</text>
<text text-anchor="start" x="568.5" y="-323.8" font-family="Times,serif" font-size="14.00">name :varchar</text>
<text text-anchor="start" x="568.5" y="-308.8" font-family="Times,serif" font-size="14.00">institution_id :integer</text>
<text text-anchor="start" x="568.5" y="-293.8" font-family="Times,serif" font-size="14.00">created_at :datetime</text>
<text text-anchor="start" x="568.5" y="-278.8" font-family="Times,serif" font-size="14.00">updated_at :datetime</text>
</g>
<!-- Institution&#45;&gt;Orgname -->
<g id="edge5" class="edge"><title>Institution&#45;&gt;Orgname</title>
<path fill="none" stroke="#60d964" d="M584.129,-428.95C588.517,-419.517 592.866,-410.17 597.029,-401.22"/>
<ellipse fill="none" stroke="#60d964" cx="582.329" cy="-432.818" rx="4.00002" ry="4.00002"/>
<polygon fill="#60d964" stroke="#60d964" points="597.077,-401.117 605.376,-393.949 599.186,-396.584 601.295,-392.05 601.295,-392.05 601.295,-392.05 599.186,-396.584 597.215,-390.152 597.077,-401.117 597.077,-401.117"/>
</g>
<!-- Orginfo -->
<g id="node9" class="node"><title>Orginfo</title>
<path fill="none" stroke="black" d="M727.5,-271C727.5,-271 840.5,-271 840.5,-271 846.5,-271 852.5,-277 852.5,-283 852.5,-283 852.5,-380 852.5,-380 852.5,-386 846.5,-392 840.5,-392 840.5,-392 727.5,-392 727.5,-392 721.5,-392 715.5,-386 715.5,-380 715.5,-380 715.5,-283 715.5,-283 715.5,-277 721.5,-271 727.5,-271"/>
<text text-anchor="middle" x="784" y="-376.8" font-family="Times,serif" font-size="14.00">Orginfo</text>
<polyline fill="none" stroke="black" points="715.5,-369 852.5,-369 "/>
<text text-anchor="start" x="723.5" y="-353.8" font-family="Times,serif" font-size="14.00">id :INTEGER</text>
<text text-anchor="start" x="723.5" y="-338.8" font-family="Times,serif" font-size="14.00">lang :varchar</text>
<text text-anchor="start" x="723.5" y="-323.8" font-family="Times,serif" font-size="14.00">url :varchar</text>
<text text-anchor="start" x="723.5" y="-308.8" font-family="Times,serif" font-size="14.00">institution_id :integer</text>
<text text-anchor="start" x="723.5" y="-293.8" font-family="Times,serif" font-size="14.00">created_at :datetime</text>
<text text-anchor="start" x="723.5" y="-278.8" font-family="Times,serif" font-size="14.00">updated_at :datetime</text>
</g>
<!-- Institution&#45;&gt;Orginfo -->
<g id="edge6" class="edge"><title>Institution&#45;&gt;Orginfo</title>
<path fill="none" stroke="#1b59cb" d="M613.34,-476.618C643.035,-452.811 676.746,-425.43 707,-400 707.468,-399.607 707.937,-399.212 708.407,-398.816"/>
<ellipse fill="none" stroke="#1b59cb" cx="610.189" cy="-479.141" rx="4.00002" ry="4.00002"/>
<polygon fill="#1b59cb" stroke="#1b59cb" points="708.485,-398.75 719.023,-395.715 712.299,-395.516 716.112,-392.282 716.112,-392.282 716.112,-392.282 712.299,-395.516 713.202,-388.85 708.485,-398.75 708.485,-398.75"/>
</g>
<!-- Orgssid&#45;&gt;Entry -->
<g id="edge10" class="edge"><title>Orgssid&#45;&gt;Entry</title>
<path fill="none" stroke="#2d6739" d="M320.913,-234.56C318.539,-241.105 316.153,-247.591 313.789,-253.919"/>
<ellipse fill="none" stroke="#2d6739" cx="322.336" cy="-230.617" rx="4.00001" ry="4.00001"/>
<polygon fill="#2d6739" stroke="#2d6739" points="313.766,-253.981 306.031,-261.755 312.004,-258.661 310.243,-263.34 310.243,-263.34 310.243,-263.34 312.004,-258.661 314.454,-264.926 313.766,-253.981 313.766,-253.981"/>
</g>
</g>
</svg>
