<?xml version="1.0" encoding="UTF-8" standalone="no"?>
<!DOCTYPE svg PUBLIC "-//W3C//DTD SVG 1.1//EN"
 "http://www.w3.org/Graphics/SVG/1.1/DTD/svg11.dtd">
<!-- Generated by graphviz version 2.40.1 (20161225.0304)
 -->
<!-- Title: models_diagram Pages: 1 -->
<svg width="570pt" height="302pt"
 viewBox="0.00 0.00 569.65 302.00" xmlns="http://www.w3.org/2000/svg" xmlns:xlink="http://www.w3.org/1999/xlink">
<g id="graph0" class="graph" transform="scale(1 1) rotate(0) translate(4 298)">
<title>models_diagram</title>
<polygon fill="transparent" stroke="transparent" points="-4,4 -4,-298 565.6465,-298 565.6465,4 -4,4"/>
<!-- _diagram_info -->
<g id="node1" class="node">
<title>_diagram_info</title>
<text text-anchor="start" x="8" y="-279.6" font-family="Times,serif" font-size="13.00" fill="#000000">Models diagram</text>
<text text-anchor="start" x="8" y="-265.6" font-family="Times,serif" font-size="13.00" fill="#000000">Date: Apr 10 2017 &#45; 23:20</text>
<text text-anchor="start" x="8" y="-251.6" font-family="Times,serif" font-size="13.00" fill="#000000">Migration version: 20170410181024</text>
<text text-anchor="start" x="8" y="-237.6" font-family="Times,serif" font-size="13.00" fill="#000000">Generated by RailRoady 1.5.2</text>
<text text-anchor="start" x="8" y="-223.6" font-family="Times,serif" font-size="13.00" fill="#000000">http://railroady.prestonlee.com</text>
</g>
<!-- Location -->
<g id="node2" class="node">
<title>Location</title>
<ellipse fill="none" stroke="#000000" cx="257" cy="-255" rx="42.7926" ry="18"/>
<text text-anchor="middle" x="257" y="-251.3" font-family="Times,serif" font-size="14.00" fill="#000000">Location</text>
</g>
<!-- Entry -->
<g id="node3" class="node">
<title>Entry</title>
<ellipse fill="none" stroke="#000000" cx="209" cy="-162" rx="31.3957" ry="18"/>
<text text-anchor="middle" x="209" y="-158.3" font-family="Times,serif" font-size="14.00" fill="#000000">Entry</text>
</g>
<!-- Location&#45;&gt;Entry -->
<g id="edge1" class="edge">
<title>Location&#45;&gt;Entry</title>
<path fill="none" stroke="#0ff705" d="M238.6078,-230.9777C231.1183,-218.2641 222.9585,-202.5986 216.9312,-189.4115"/>
<ellipse fill="none" stroke="#0ff705" cx="240.7576" cy="-234.5222" rx="4" ry="4"/>
<polygon fill="#0ff705" stroke="#0ff705" points="216.781,-189.0669 216.9091,-178.1018 214.7825,-184.4837 212.7841,-179.9004 212.7841,-179.9004 212.7841,-179.9004 214.7825,-184.4837 208.6592,-181.6989 216.781,-189.0669 216.781,-189.0669"/>
</g>
<!-- LocName -->
<g id="node7" class="node">
<title>LocName</title>
<ellipse fill="none" stroke="#000000" cx="304" cy="-162" rx="46.2923" ry="18"/>
<text text-anchor="middle" x="304" y="-158.3" font-family="Times,serif" font-size="14.00" fill="#000000">LocName</text>
</g>
<!-- Location&#45;&gt;LocName -->
<g id="edge2" class="edge">
<title>Location&#45;&gt;LocName</title>
<path fill="none" stroke="#8a4b79" d="M269.7852,-229.7016C276.1375,-217.1322 283.8188,-201.9331 290.2926,-189.1232"/>
<ellipse fill="none" stroke="#8a4b79" cx="267.8663" cy="-233.4987" rx="4" ry="4"/>
<polygon fill="#8a4b79" stroke="#8a4b79" points="290.4552,-188.8013 298.982,-181.906 292.7105,-184.3388 294.9657,-179.8763 294.9657,-179.8763 294.9657,-179.8763 292.7105,-184.3388 290.9495,-177.8465 290.4552,-188.8013 290.4552,-188.8013"/>
</g>
<!-- Entry&#45;&gt;Location -->
<g id="edge4" class="edge">
<title>Entry&#45;&gt;Location</title>
<path fill="none" stroke="#9c29a3" d="M227.0136,-185.3812C234.9609,-198.8065 243.7212,-215.6802 249.9143,-229.453"/>
<ellipse fill="none" stroke="#9c29a3" cx="224.7873" cy="-181.7335" rx="4" ry="4"/>
<ellipse fill="#9c29a3" stroke="#9c29a3" cx="251.6172" cy="-233.3965" rx="4" ry="4"/>
</g>
<!-- Institution -->
<g id="node4" class="node">
<title>Institution</title>
<ellipse fill="none" stroke="#000000" cx="311" cy="-90" rx="49.2915" ry="18"/>
<text text-anchor="middle" x="311" y="-86.3" font-family="Times,serif" font-size="14.00" fill="#000000">Institution</text>
</g>
<!-- Entry&#45;&gt;Institution -->
<g id="edge3" class="edge">
<title>Entry&#45;&gt;Institution</title>
<path fill="none" stroke="#14981f" d="M232.1844,-141.2735C245.4575,-131.3472 262.2417,-119.519 276.9598,-109.7259"/>
<ellipse fill="none" stroke="#14981f" cx="228.6413" cy="-143.9602" rx="4" ry="4"/>
<ellipse fill="#14981f" stroke="#14981f" cx="280.6526" cy="-107.2971" rx="4" ry="4"/>
</g>
<!-- Orgssid -->
<g id="node6" class="node">
<title>Orgssid</title>
<ellipse fill="none" stroke="#000000" cx="209" cy="-18" rx="38.1938" ry="18"/>
<text text-anchor="middle" x="209" y="-14.3" font-family="Times,serif" font-size="14.00" fill="#000000">Orgssid</text>
</g>
<!-- Entry&#45;&gt;Orgssid -->
<g id="edge5" class="edge">
<title>Entry&#45;&gt;Orgssid</title>
<path fill="none" stroke="#74de53" d="M203.669,-136.0476C201.7892,-110.1441 201.7771,-70.5402 203.6325,-44.4597"/>
<ellipse fill="none" stroke="#74de53" cx="204.014" cy="-140.0681" rx="4" ry="4"/>
<ellipse fill="#74de53" stroke="#74de53" cx="203.9962" cy="-40.1585" rx="4" ry="4"/>
</g>
<!-- Institution&#45;&gt;Location -->
<g id="edge11" class="edge">
<title>Institution&#45;&gt;Location</title>
<path fill="none" stroke="#512d58" d="M337.5931,-112.4588C346.1183,-121.309 354.5089,-132.1875 359,-144 364.6861,-158.9555 366.2232,-165.7232 359,-180 345.9181,-205.8568 319.2588,-224.9725 296.4759,-237.4329"/>
<ellipse fill="none" stroke="#512d58" cx="334.5655" cy="-109.4764" rx="4" ry="4"/>
<polygon fill="#512d58" stroke="#512d58" points="296.1923,-237.5807 285.2447,-238.2142 291.7589,-239.8925 287.3254,-242.2044 287.3254,-242.2044 287.3254,-242.2044 291.7589,-239.8925 289.406,-246.1945 296.1923,-237.5807 296.1923,-237.5807"/>
</g>
<!-- Institution&#45;&gt;Entry -->
<g id="edge10" class="edge">
<title>Institution&#45;&gt;Entry</title>
<path fill="none" stroke="#489238" d="M286.5257,-111.6889C272.6669,-122.0057 255.2931,-134.1954 240.4476,-143.9923"/>
<ellipse fill="none" stroke="#489238" cx="289.8261" cy="-109.2012" rx="4" ry="4"/>
<polygon fill="#489238" stroke="#489238" points="240.1634,-144.1767 229.3257,-145.8486 235.9699,-146.8997 231.7764,-149.6228 231.7764,-149.6228 231.7764,-149.6228 235.9699,-146.8997 234.2272,-153.3969 240.1634,-144.1767 240.1634,-144.1767"/>
</g>
<!-- Orgpolicy -->
<g id="node5" class="node">
<title>Orgpolicy</title>
<ellipse fill="none" stroke="#000000" cx="311" cy="-18" rx="46.2923" ry="18"/>
<text text-anchor="middle" x="311" y="-14.3" font-family="Times,serif" font-size="14.00" fill="#000000">Orgpolicy</text>
</g>
<!-- Institution&#45;&gt;Orgpolicy -->
<g id="edge8" class="edge">
<title>Institution&#45;&gt;Orgpolicy</title>
<path fill="none" stroke="#6370bf" d="M311,-63.8144C311,-58.2775 311,-52.4053 311,-46.7785"/>
<ellipse fill="none" stroke="#6370bf" cx="311" cy="-67.8314" rx="4" ry="4"/>
<polygon fill="#6370bf" stroke="#6370bf" points="311.0001,-46.4133 315.5,-36.4132 311,-41.4133 311,-36.4133 311,-36.4133 311,-36.4133 311,-41.4133 306.5,-36.4133 311.0001,-46.4133 311.0001,-46.4133"/>
</g>
<!-- Institution&#45;&gt;Orgssid -->
<g id="edge9" class="edge">
<title>Institution&#45;&gt;Orgssid</title>
<path fill="none" stroke="#029e4e" d="M281.3656,-69.0816C267.9931,-59.6422 252.2284,-48.5142 238.8325,-39.0582"/>
<ellipse fill="none" stroke="#029e4e" cx="284.8413" cy="-71.535" rx="4" ry="4"/>
<polygon fill="#029e4e" stroke="#029e4e" points="238.5901,-38.8872 233.0155,-29.4439 234.5053,-36.0037 230.4204,-33.1203 230.4204,-33.1203 230.4204,-33.1203 234.5053,-36.0037 227.8253,-36.7967 238.5901,-38.8872 238.5901,-38.8872"/>
</g>
<!-- Orgname -->
<g id="node8" class="node">
<title>Orgname</title>
<ellipse fill="none" stroke="#000000" cx="420" cy="-18" rx="44.6926" ry="18"/>
<text text-anchor="middle" x="420" y="-14.3" font-family="Times,serif" font-size="14.00" fill="#000000">Orgname</text>
</g>
<!-- Institution&#45;&gt;Orgname -->
<g id="edge6" class="edge">
<title>Institution&#45;&gt;Orgname</title>
<path fill="none" stroke="#bdf6c3" d="M341.6119,-69.7793C356.0175,-60.2637 373.1991,-48.9144 387.8002,-39.2696"/>
<ellipse fill="none" stroke="#bdf6c3" cx="338.2581" cy="-71.9946" rx="4" ry="4"/>
<polygon fill="#bdf6c3" stroke="#bdf6c3" points="388.166,-39.028 398.9903,-37.2711 392.338,-36.2721 396.51,-33.5163 396.51,-33.5163 396.51,-33.5163 392.338,-36.2721 394.0298,-29.7615 388.166,-39.028 388.166,-39.028"/>
</g>
<!-- Orginfo -->
<g id="node9" class="node">
<title>Orginfo</title>
<ellipse fill="none" stroke="#000000" cx="522" cy="-18" rx="39.7935" ry="18"/>
<text text-anchor="middle" x="522" y="-14.3" font-family="Times,serif" font-size="14.00" fill="#000000">Orginfo</text>
</g>
<!-- Institution&#45;&gt;Orginfo -->
<g id="edge7" class="edge">
<title>Institution&#45;&gt;Orginfo</title>
<path fill="none" stroke="#f929b9" d="M356.0042,-75.6105C388.8242,-64.9905 434.3123,-50.0095 474,-36 476.6751,-35.0557 479.4282,-34.0675 482.1984,-33.061"/>
<ellipse fill="none" stroke="#f929b9" cx="352.1709" cy="-76.8485" rx="4" ry="4"/>
<polygon fill="#f929b9" stroke="#f929b9" points="482.2089,-33.0572 493.1476,-33.8288 486.9016,-31.3313 491.5942,-29.6053 491.5942,-29.6053 491.5942,-29.6053 486.9016,-31.3313 490.0409,-25.3819 482.2089,-33.0572 482.2089,-33.0572"/>
</g>
<!-- Orgssid&#45;&gt;Entry -->
<g id="edge12" class="edge">
<title>Orgssid&#45;&gt;Entry</title>
<path fill="none" stroke="#40d210" d="M214.3512,-44.2323C216.1695,-69.5643 216.2151,-107.8073 214.4881,-133.7871"/>
<ellipse fill="none" stroke="#40d210" cx="214.0052" cy="-40.1584" rx="4" ry="4"/>
<polygon fill="#40d210" stroke="#40d210" points="214.4635,-134.0871 209.159,-143.6846 214.0537,-139.0703 213.6438,-144.0535 213.6438,-144.0535 213.6438,-144.0535 214.0537,-139.0703 218.1287,-144.4223 214.4635,-134.0871 214.4635,-134.0871"/>
</g>
</g>
</svg>
