<?xml version="1.0" encoding="UTF-8" standalone="no"?>
<!DOCTYPE svg PUBLIC "-//W3C//DTD SVG 1.1//EN"
 "http://www.w3.org/Graphics/SVG/1.1/DTD/svg11.dtd">
<!-- Generated by graphviz version 2.40.1 (20161225.0304)
 -->
<!-- Title: models_diagram Pages: 1 -->
<svg width="750pt" height="904pt"
 viewBox="0.00 0.00 749.50 904.00" xmlns="http://www.w3.org/2000/svg" xmlns:xlink="http://www.w3.org/1999/xlink">
<g id="graph0" class="graph" transform="scale(1 1) rotate(0) translate(4 900)">
<title>models_diagram</title>
<polygon fill="transparent" stroke="transparent" points="-4,4 -4,-900 745.5,-900 745.5,4 -4,4"/>
<!-- _diagram_info -->
<g id="node1" class="node">
<title>_diagram_info</title>
<text text-anchor="start" x="8" y="-829.6" font-family="Times,serif" font-size="13.00" fill="#000000">Models diagram</text>
<text text-anchor="start" x="8" y="-815.6" font-family="Times,serif" font-size="13.00" fill="#000000">Date: Apr 10 2017 &#45; 23:20</text>
<text text-anchor="start" x="8" y="-801.6" font-family="Times,serif" font-size="13.00" fill="#000000">Migration version: 20170410181024</text>
<text text-anchor="start" x="8" y="-787.6" font-family="Times,serif" font-size="13.00" fill="#000000">Generated by RailRoady 1.5.2</text>
<text text-anchor="start" x="8" y="-773.6" font-family="Times,serif" font-size="13.00" fill="#000000">http://railroady.prestonlee.com</text>
</g>
<!-- Location -->
<g id="node2" class="node">
<title>Location</title>
<path fill="none" stroke="#000000" d="M226.5,-714.5C226.5,-714.5 339.5,-714.5 339.5,-714.5 345.5,-714.5 351.5,-720.5 351.5,-726.5 351.5,-726.5 351.5,-883.5 351.5,-883.5 351.5,-889.5 345.5,-895.5 339.5,-895.5 339.5,-895.5 226.5,-895.5 226.5,-895.5 220.5,-895.5 214.5,-889.5 214.5,-883.5 214.5,-883.5 214.5,-726.5 214.5,-726.5 214.5,-720.5 220.5,-714.5 226.5,-714.5"/>
<text text-anchor="middle" x="283" y="-880.3" font-family="Times,serif" font-size="14.00" fill="#000000">Location</text>
<polyline fill="none" stroke="#000000" points="214.5,-872.5 351.5,-872.5 "/>
<text text-anchor="start" x="222.5" y="-857.3" font-family="Times,serif" font-size="14.00" fill="#000000">institution_id :integer</text>
<text text-anchor="start" x="222.5" y="-842.3" font-family="Times,serif" font-size="14.00" fill="#000000">address :varchar</text>
<text text-anchor="start" x="222.5" y="-827.3" font-family="Times,serif" font-size="14.00" fill="#000000">street_nr :integer</text>
<text text-anchor="start" x="222.5" y="-812.3" font-family="Times,serif" font-size="14.00" fill="#000000">city :varchar</text>
<text text-anchor="start" x="222.5" y="-797.3" font-family="Times,serif" font-size="14.00" fill="#000000">country :varchar</text>
<text text-anchor="start" x="222.5" y="-782.3" font-family="Times,serif" font-size="14.00" fill="#000000">longitude :varchar</text>
<text text-anchor="start" x="222.5" y="-767.3" font-family="Times,serif" font-size="14.00" fill="#000000">latitude :varchar</text>
<text text-anchor="start" x="222.5" y="-752.3" font-family="Times,serif" font-size="14.00" fill="#000000">created_at :datetime</text>
<text text-anchor="start" x="222.5" y="-737.3" font-family="Times,serif" font-size="14.00" fill="#000000">updated_at :datetime</text>
<text text-anchor="start" x="222.5" y="-722.3" font-family="Times,serif" font-size="14.00" fill="#000000">id :INTEGER</text>
</g>
<!-- Entry -->
<g id="node3" class="node">
<title>Entry</title>
<path fill="none" stroke="#000000" d="M149.5,-541.5C149.5,-541.5 262.5,-541.5 262.5,-541.5 268.5,-541.5 274.5,-547.5 274.5,-553.5 274.5,-553.5 274.5,-665.5 274.5,-665.5 274.5,-671.5 268.5,-677.5 262.5,-677.5 262.5,-677.5 149.5,-677.5 149.5,-677.5 143.5,-677.5 137.5,-671.5 137.5,-665.5 137.5,-665.5 137.5,-553.5 137.5,-553.5 137.5,-547.5 143.5,-541.5 149.5,-541.5"/>
<text text-anchor="middle" x="206" y="-662.3" font-family="Times,serif" font-size="14.00" fill="#000000">Entry</text>
<polyline fill="none" stroke="#000000" points="137.5,-654.5 274.5,-654.5 "/>
<text text-anchor="start" x="145.5" y="-639.3" font-family="Times,serif" font-size="14.00" fill="#000000">ap_count :integer</text>
<text text-anchor="start" x="145.5" y="-624.3" font-family="Times,serif" font-size="14.00" fill="#000000">institution_id :integer</text>
<text text-anchor="start" x="145.5" y="-609.3" font-family="Times,serif" font-size="14.00" fill="#000000">location_id :integer</text>
<text text-anchor="start" x="145.5" y="-594.3" font-family="Times,serif" font-size="14.00" fill="#000000">id :INTEGER</text>
<text text-anchor="start" x="145.5" y="-579.3" font-family="Times,serif" font-size="14.00" fill="#000000">created_at :datetime</text>
<text text-anchor="start" x="145.5" y="-564.3" font-family="Times,serif" font-size="14.00" fill="#000000">updated_at :datetime</text>
<text text-anchor="start" x="145.5" y="-549.3" font-family="Times,serif" font-size="14.00" fill="#000000">orgssid_id :integer</text>
</g>
<!-- Location&#45;&gt;Entry -->
<g id="edge1" class="edge">
<title>Location&#45;&gt;Entry</title>
<path fill="none" stroke="#5fd732" d="M237.5902,-706.8441C234.9739,-700.1972 232.4003,-693.5528 229.9176,-687.0339"/>
<ellipse fill="none" stroke="#5fd732" cx="239.111" cy="-710.6847" rx="4" ry="4"/>
<polygon fill="#5fd732" stroke="#5fd732" points="229.8832,-686.9424 230.561,-675.9975 228.1171,-682.2647 226.351,-677.587 226.351,-677.587 226.351,-677.587 228.1171,-682.2647 222.1411,-679.1764 229.8832,-686.9424 229.8832,-686.9424"/>
</g>
<!-- LocName -->
<g id="node7" class="node">
<title>LocName</title>
<path fill="none" stroke="#000000" d="M305,-549C305,-549 413,-549 413,-549 419,-549 425,-555 425,-561 425,-561 425,-658 425,-658 425,-664 419,-670 413,-670 413,-670 305,-670 305,-670 299,-670 293,-664 293,-658 293,-658 293,-561 293,-561 293,-555 299,-549 305,-549"/>
<text text-anchor="middle" x="359" y="-654.8" font-family="Times,serif" font-size="14.00" fill="#000000">LocName</text>
<polyline fill="none" stroke="#000000" points="293,-647 425,-647 "/>
<text text-anchor="start" x="301" y="-631.8" font-family="Times,serif" font-size="14.00" fill="#000000">id :INTEGER</text>
<text text-anchor="start" x="301" y="-616.8" font-family="Times,serif" font-size="14.00" fill="#000000">lang :varchar</text>
<text text-anchor="start" x="301" y="-601.8" font-family="Times,serif" font-size="14.00" fill="#000000">name :varchar</text>
<text text-anchor="start" x="301" y="-586.8" font-family="Times,serif" font-size="14.00" fill="#000000">created_at :datetime</text>
<text text-anchor="start" x="301" y="-571.8" font-family="Times,serif" font-size="14.00" fill="#000000">updated_at :datetime</text>
<text text-anchor="start" x="301" y="-556.8" font-family="Times,serif" font-size="14.00" fill="#000000">location_id :integer</text>
</g>
<!-- Location&#45;&gt;LocName -->
<g id="edge2" class="edge">
<title>Location&#45;&gt;LocName</title>
<path fill="none" stroke="#224a6b" d="M321.2271,-706.6658C324.7776,-697.5326 328.3254,-688.4063 331.7466,-679.6057"/>
<ellipse fill="none" stroke="#224a6b" cx="319.6684" cy="-710.6755" rx="4" ry="4"/>
<polygon fill="#224a6b" stroke="#224a6b" points="331.78,-679.5196 339.5976,-671.8296 333.5917,-674.8594 335.4034,-670.1991 335.4034,-670.1991 335.4034,-670.1991 333.5917,-674.8594 331.2092,-668.5686 331.78,-679.5196 331.78,-679.5196"/>
</g>
<!-- Entry&#45;&gt;Location -->
<g id="edge4" class="edge">
<title>Entry&#45;&gt;Location</title>
<path fill="none" stroke="#98cbaf" d="M242.4177,-685.218C245.3149,-692.3167 248.2267,-699.5789 251.0901,-706.8441"/>
<ellipse fill="none" stroke="#98cbaf" cx="240.8027" cy="-681.2869" rx="4" ry="4"/>
<ellipse fill="#98cbaf" stroke="#98cbaf" cx="252.5925" cy="-710.6793" rx="4" ry="4"/>
</g>
<!-- Institution -->
<g id="node4" class="node">
<title>Institution</title>
<path fill="none" stroke="#000000" d="M300,-293.5C300,-293.5 426,-293.5 426,-293.5 432,-293.5 438,-299.5 438,-305.5 438,-305.5 438,-492.5 438,-492.5 438,-498.5 432,-504.5 426,-504.5 426,-504.5 300,-504.5 300,-504.5 294,-504.5 288,-498.5 288,-492.5 288,-492.5 288,-305.5 288,-305.5 288,-299.5 294,-293.5 300,-293.5"/>
<text text-anchor="middle" x="363" y="-489.3" font-family="Times,serif" font-size="14.00" fill="#000000">Institution</text>
<polyline fill="none" stroke="#000000" points="288,-481.5 438,-481.5 "/>
<text text-anchor="start" x="296" y="-466.3" font-family="Times,serif" font-size="14.00" fill="#000000">apikey :varchar</text>
<text text-anchor="start" x="296" y="-451.3" font-family="Times,serif" font-size="14.00" fill="#000000">country :varchar</text>
<text text-anchor="start" x="296" y="-436.3" font-family="Times,serif" font-size="14.00" fill="#000000">institution_type :integer</text>
<text text-anchor="start" x="296" y="-421.3" font-family="Times,serif" font-size="14.00" fill="#000000">inst_realm :varchar</text>
<text text-anchor="start" x="296" y="-406.3" font-family="Times,serif" font-size="14.00" fill="#000000">address :varchar</text>
<text text-anchor="start" x="296" y="-391.3" font-family="Times,serif" font-size="14.00" fill="#000000">city :varchar</text>
<text text-anchor="start" x="296" y="-376.3" font-family="Times,serif" font-size="14.00" fill="#000000">contact_name :varchar</text>
<text text-anchor="start" x="296" y="-361.3" font-family="Times,serif" font-size="14.00" fill="#000000">contact_email :varchar</text>
<text text-anchor="start" x="296" y="-346.3" font-family="Times,serif" font-size="14.00" fill="#000000">contact_phone :varchar</text>
<text text-anchor="start" x="296" y="-331.3" font-family="Times,serif" font-size="14.00" fill="#000000">created_at :datetime</text>
<text text-anchor="start" x="296" y="-316.3" font-family="Times,serif" font-size="14.00" fill="#000000">updated_at :datetime</text>
<text text-anchor="start" x="296" y="-301.3" font-family="Times,serif" font-size="14.00" fill="#000000">id :INTEGER</text>
</g>
<!-- Entry&#45;&gt;Institution -->
<g id="edge3" class="edge">
<title>Entry&#45;&gt;Institution</title>
<path fill="none" stroke="#532380" d="M255.1371,-534.9191C264.0346,-522.703 273.5137,-509.8828 283.0218,-497.1999"/>
<ellipse fill="none" stroke="#532380" cx="252.7466" cy="-538.2108" rx="4" ry="4"/>
<ellipse fill="#532380" stroke="#532380" cx="285.5905" cy="-493.7816" rx="4" ry="4"/>
</g>
<!-- Orgssid -->
<g id="node6" class="node">
<title>Orgssid</title>
<path fill="none" stroke="#000000" d="M148,-.5C148,-.5 264,-.5 264,-.5 270,-.5 276,-6.5 276,-12.5 276,-12.5 276,-244.5 276,-244.5 276,-250.5 270,-256.5 264,-256.5 264,-256.5 148,-256.5 148,-256.5 142,-256.5 136,-250.5 136,-244.5 136,-244.5 136,-12.5 136,-12.5 136,-6.5 142,-.5 148,-.5"/>
<text text-anchor="middle" x="206" y="-241.3" font-family="Times,serif" font-size="14.00" fill="#000000">Orgssid</text>
<polyline fill="none" stroke="#000000" points="136,-233.5 276,-233.5 "/>
<text text-anchor="start" x="144" y="-218.3" font-family="Times,serif" font-size="14.00" fill="#000000">wired :boolean</text>
<text text-anchor="start" x="144" y="-203.3" font-family="Times,serif" font-size="14.00" fill="#000000">number :integer</text>
<text text-anchor="start" x="144" y="-188.3" font-family="Times,serif" font-size="14.00" fill="#000000">institution_id :integer</text>
<text text-anchor="start" x="144" y="-173.3" font-family="Times,serif" font-size="14.00" fill="#000000">created_at :datetime</text>
<text text-anchor="start" x="144" y="-158.3" font-family="Times,serif" font-size="14.00" fill="#000000">updated_at :datetime</text>
<text text-anchor="start" x="144" y="-143.3" font-family="Times,serif" font-size="14.00" fill="#000000">name :varchar</text>
<text text-anchor="start" x="144" y="-128.3" font-family="Times,serif" font-size="14.00" fill="#000000">port_restrict :boolean</text>
<text text-anchor="start" x="144" y="-113.3" font-family="Times,serif" font-size="14.00" fill="#000000">transp_proxy :boolean</text>
<text text-anchor="start" x="144" y="-98.3" font-family="Times,serif" font-size="14.00" fill="#000000">ipv6 :boolean</text>
<text text-anchor="start" x="144" y="-83.3" font-family="Times,serif" font-size="14.00" fill="#000000">nat :boolean</text>
<text text-anchor="start" x="144" y="-68.3" font-family="Times,serif" font-size="14.00" fill="#000000">wpa_tkip :boolean</text>
<text text-anchor="start" x="144" y="-53.3" font-family="Times,serif" font-size="14.00" fill="#000000">wpa_aes :boolean</text>
<text text-anchor="start" x="144" y="-38.3" font-family="Times,serif" font-size="14.00" fill="#000000">wpa2_tkip :boolean</text>
<text text-anchor="start" x="144" y="-23.3" font-family="Times,serif" font-size="14.00" fill="#000000">wpa2_aes :boolean</text>
<text text-anchor="start" x="144" y="-8.3" font-family="Times,serif" font-size="14.00" fill="#000000">id :INTEGER</text>
</g>
<!-- Entry&#45;&gt;Orgssid -->
<g id="edge5" class="edge">
<title>Entry&#45;&gt;Orgssid</title>
<path fill="none" stroke="#bd576b" d="M200.9032,-532.9573C199.1395,-461.0495 198.787,-351.8173 199.8456,-264.9889"/>
<ellipse fill="none" stroke="#bd576b" cx="201.0168" cy="-537.3515" rx="4" ry="4"/>
<ellipse fill="#bd576b" stroke="#bd576b" cx="199.8976" cy="-260.9239" rx="4" ry="4"/>
</g>
<!-- Institution&#45;&gt;Location -->
<g id="edge11" class="edge">
<title>Institution&#45;&gt;Location</title>
<path fill="none" stroke="#3927bc" d="M425.9216,-512.1352C446.3794,-564.203 458.2805,-625.8521 434,-678 418.3399,-711.6337 388.9022,-739.5405 360.1481,-760.546"/>
<ellipse fill="none" stroke="#3927bc" cx="424.3439" cy="-508.2332" rx="4" ry="4"/>
<polygon fill="#3927bc" stroke="#3927bc" points="359.8225,-760.7769 349.0628,-762.8935 355.7446,-763.6703 351.6668,-766.5636 351.6668,-766.5636 351.6668,-766.5636 355.7446,-763.6703 354.2708,-770.2336 359.8225,-760.7769 359.8225,-760.7769"/>
</g>
<!-- Institution&#45;&gt;Entry -->
<g id="edge10" class="edge">
<title>Institution&#45;&gt;Entry</title>
<path fill="none" stroke="#188769" d="M285.8374,-511.4879C280.3025,-518.87 274.7588,-526.2044 269.3151,-533.3449"/>
<ellipse fill="none" stroke="#188769" cx="288.5191" cy="-507.9025" rx="4" ry="4"/>
<polygon fill="#188769" stroke="#188769" points="269.1928,-533.5048 259.5428,-538.7133 266.1549,-537.4761 263.117,-541.4474 263.117,-541.4474 263.117,-541.4474 266.1549,-537.4761 266.6912,-544.1815 269.1928,-533.5048 269.1928,-533.5048"/>
</g>
<!-- Orgpolicy -->
<g id="node5" class="node">
<title>Orgpolicy</title>
<path fill="none" stroke="#000000" d="M306.5,-68C306.5,-68 419.5,-68 419.5,-68 425.5,-68 431.5,-74 431.5,-80 431.5,-80 431.5,-177 431.5,-177 431.5,-183 425.5,-189 419.5,-189 419.5,-189 306.5,-189 306.5,-189 300.5,-189 294.5,-183 294.5,-177 294.5,-177 294.5,-80 294.5,-80 294.5,-74 300.5,-68 306.5,-68"/>
<text text-anchor="middle" x="363" y="-173.8" font-family="Times,serif" font-size="14.00" fill="#000000">Orgpolicy</text>
<polyline fill="none" stroke="#000000" points="294.5,-166 431.5,-166 "/>
<text text-anchor="start" x="302.5" y="-150.8" font-family="Times,serif" font-size="14.00" fill="#000000">id :INTEGER</text>
<text text-anchor="start" x="302.5" y="-135.8" font-family="Times,serif" font-size="14.00" fill="#000000">lang :varchar</text>
<text text-anchor="start" x="302.5" y="-120.8" font-family="Times,serif" font-size="14.00" fill="#000000">url :varchar</text>
<text text-anchor="start" x="302.5" y="-105.8" font-family="Times,serif" font-size="14.00" fill="#000000">institution_id :integer</text>
<text text-anchor="start" x="302.5" y="-90.8" font-family="Times,serif" font-size="14.00" fill="#000000">created_at :datetime</text>
<text text-anchor="start" x="302.5" y="-75.8" font-family="Times,serif" font-size="14.00" fill="#000000">updated_at :datetime</text>
</g>
<!-- Institution&#45;&gt;Orgpolicy -->
<g id="edge8" class="edge">
<title>Institution&#45;&gt;Orgpolicy</title>
<path fill="none" stroke="#6c0457" d="M363,-284.9432C363,-255.9349 363,-225.5928 363,-199.4345"/>
<ellipse fill="none" stroke="#6c0457" cx="363" cy="-289.2555" rx="4" ry="4"/>
<polygon fill="#6c0457" stroke="#6c0457" points="363.0001,-199.2516 367.5,-189.2515 363,-194.2516 363,-189.2516 363,-189.2516 363,-189.2516 363,-194.2516 358.5,-189.2516 363.0001,-199.2516 363.0001,-199.2516"/>
</g>
<!-- Institution&#45;&gt;Orgssid -->
<g id="edge9" class="edge">
<title>Institution&#45;&gt;Orgssid</title>
<path fill="none" stroke="#ddc68c" d="M297.499,-286.1464C292.1648,-276.9558 286.7481,-267.6233 281.3513,-258.3251"/>
<ellipse fill="none" stroke="#ddc68c" cx="299.6172" cy="-289.7959" rx="4" ry="4"/>
<polygon fill="#ddc68c" stroke="#ddc68c" points="281.2064,-258.0753 280.0785,-247.1675 278.6965,-253.7509 276.1865,-249.4265 276.1865,-249.4265 276.1865,-249.4265 278.6965,-253.7509 272.2946,-251.6854 281.2064,-258.0753 281.2064,-258.0753"/>
</g>
<!-- Orgname -->
<g id="node8" class="node">
<title>Orgname</title>
<path fill="none" stroke="#000000" d="M461.5,-68C461.5,-68 574.5,-68 574.5,-68 580.5,-68 586.5,-74 586.5,-80 586.5,-80 586.5,-177 586.5,-177 586.5,-183 580.5,-189 574.5,-189 574.5,-189 461.5,-189 461.5,-189 455.5,-189 449.5,-183 449.5,-177 449.5,-177 449.5,-80 449.5,-80 449.5,-74 455.5,-68 461.5,-68"/>
<text text-anchor="middle" x="518" y="-173.8" font-family="Times,serif" font-size="14.00" fill="#000000">Orgname</text>
<polyline fill="none" stroke="#000000" points="449.5,-166 586.5,-166 "/>
<text text-anchor="start" x="457.5" y="-150.8" font-family="Times,serif" font-size="14.00" fill="#000000">id :INTEGER</text>
<text text-anchor="start" x="457.5" y="-135.8" font-family="Times,serif" font-size="14.00" fill="#000000">lang :varchar</text>
<text text-anchor="start" x="457.5" y="-120.8" font-family="Times,serif" font-size="14.00" fill="#000000">name :varchar</text>
<text text-anchor="start" x="457.5" y="-105.8" font-family="Times,serif" font-size="14.00" fill="#000000">institution_id :integer</text>
<text text-anchor="start" x="457.5" y="-90.8" font-family="Times,serif" font-size="14.00" fill="#000000">created_at :datetime</text>
<text text-anchor="start" x="457.5" y="-75.8" font-family="Times,serif" font-size="14.00" fill="#000000">updated_at :datetime</text>
</g>
<!-- Institution&#45;&gt;Orgname -->
<g id="edge6" class="edge">
<title>Institution&#45;&gt;Orgname</title>
<path fill="none" stroke="#7faaba" d="M427.6384,-286.1955C444.7464,-256.3393 462.7147,-224.9818 478.0818,-198.1637"/>
<ellipse fill="none" stroke="#7faaba" cx="425.5817" cy="-289.7848" rx="4" ry="4"/>
<polygon fill="#7faaba" stroke="#7faaba" points="478.2168,-197.9281 487.093,-191.4889 480.7027,-193.5898 483.1886,-189.2516 483.1886,-189.2516 483.1886,-189.2516 480.7027,-193.5898 479.2841,-187.0142 478.2168,-197.9281 478.2168,-197.9281"/>
</g>
<!-- Orginfo -->
<g id="node9" class="node">
<title>Orginfo</title>
<path fill="none" stroke="#000000" d="M616.5,-68C616.5,-68 729.5,-68 729.5,-68 735.5,-68 741.5,-74 741.5,-80 741.5,-80 741.5,-177 741.5,-177 741.5,-183 735.5,-189 729.5,-189 729.5,-189 616.5,-189 616.5,-189 610.5,-189 604.5,-183 604.5,-177 604.5,-177 604.5,-80 604.5,-80 604.5,-74 610.5,-68 616.5,-68"/>
<text text-anchor="middle" x="673" y="-173.8" font-family="Times,serif" font-size="14.00" fill="#000000">Orginfo</text>
<polyline fill="none" stroke="#000000" points="604.5,-166 741.5,-166 "/>
<text text-anchor="start" x="612.5" y="-150.8" font-family="Times,serif" font-size="14.00" fill="#000000">id :INTEGER</text>
<text text-anchor="start" x="612.5" y="-135.8" font-family="Times,serif" font-size="14.00" fill="#000000">lang :varchar</text>
<text text-anchor="start" x="612.5" y="-120.8" font-family="Times,serif" font-size="14.00" fill="#000000">url :varchar</text>
<text text-anchor="start" x="612.5" y="-105.8" font-family="Times,serif" font-size="14.00" fill="#000000">institution_id :integer</text>
<text text-anchor="start" x="612.5" y="-90.8" font-family="Times,serif" font-size="14.00" fill="#000000">created_at :datetime</text>
<text text-anchor="start" x="612.5" y="-75.8" font-family="Times,serif" font-size="14.00" fill="#000000">updated_at :datetime</text>
</g>
<!-- Institution&#45;&gt;Orginfo -->
<g id="edge7" class="edge">
<title>Institution&#45;&gt;Orginfo</title>
<path fill="none" stroke="#a8d24f" d="M445.4244,-361.3345C493.3616,-336.5524 552.6725,-300.6531 596,-257 612.9128,-239.9601 627.6405,-218.5005 639.5598,-198.0243"/>
<ellipse fill="none" stroke="#a8d24f" cx="441.6967" cy="-363.2411" rx="4" ry="4"/>
<polygon fill="#a8d24f" stroke="#a8d24f" points="639.5605,-198.0229 648.4085,-191.545 642.0274,-193.6739 644.4943,-189.3248 644.4943,-189.3248 644.4943,-189.3248 642.0274,-193.6739 640.5801,-187.1046 639.5605,-198.0229 639.5605,-198.0229"/>
</g>
<!-- Orgssid&#45;&gt;Entry -->
<g id="edge12" class="edge">
<title>Orgssid&#45;&gt;Entry</title>
<path fill="none" stroke="#97bc95" d="M212.1567,-265.1832C213.2036,-351.2534 212.865,-459.2772 211.1408,-531.1446"/>
<ellipse fill="none" stroke="#97bc95" cx="212.1023" cy="-260.9239" rx="4" ry="4"/>
<polygon fill="#97bc95" stroke="#97bc95" points="211.1355,-531.3534 206.3813,-541.2351 211.0077,-536.3517 210.8798,-541.3501 210.8798,-541.3501 210.8798,-541.3501 211.0077,-536.3517 215.3784,-541.4652 211.1355,-531.3534 211.1355,-531.3534"/>
</g>
</g>
</svg>
